<svg width="19" height="19" viewBox="0 0 19 19" fill="none" xmlns="http://www.w3.org/2000/svg">
<g clip-path="url(#clip0_271_3875)">
<path d="M15.8103 7.62468L15.1289 6.13402C14.8269 5.63202 14.3689 5.24268 13.8249 5.02535L9.48225 3.28668C9.00492 3.09602 8.50026 3.00002 7.99559 3.00002C7.49092 3.00002 6.98425 3.09602 6.50626 3.28735L2.17425 5.02535C1.63092 5.24335 1.17425 5.63202 0.872255 6.13335L0.190255 7.62468C-0.247745 8.35468 0.102921 9.30268 0.910255 9.57135L5.55759 11.654C5.69626 11.7 5.83892 11.7227 5.97892 11.7227C6.43759 11.7227 6.87626 11.4853 7.12225 11.0753L7.99292 9.44335L8.87692 11.0753C9.12292 11.4853 9.56225 11.7227 10.0203 11.7227C10.1609 11.7227 10.3029 11.7007 10.4416 11.654L15.0889 9.57135C15.8963 9.30202 16.2469 8.35468 15.8089 7.62468H15.8103ZM12.3316 6.58135L8.00092 8.18602L3.66892 6.58135L7.25159 5.14402C7.48959 5.04868 7.74026 5.00002 7.99626 5.00002C8.25226 5.00002 8.50226 5.04802 8.73959 5.14335L12.3316 6.58135ZM14.6663 11.2213L14.6643 14.5047C14.6629 16.02 13.6963 17.3593 12.2589 17.8387L9.50826 18.7553C9.02159 18.918 8.50959 18.9987 7.99759 18.9987C7.48559 18.9987 6.97426 18.9173 6.48759 18.7553L3.73959 17.8393C2.29892 17.3593 1.33292 16.0173 1.33425 14.5V11.222L3.33425 12.118V14.5007C3.33425 15.156 3.75092 15.7347 4.37225 15.942L6.99825 16.8173L6.99959 12.8387C7.38159 12.6813 7.72892 12.4427 8.00092 12.128C8.27359 12.4433 8.61892 12.6813 8.99959 12.8407L8.99825 16.8167L11.6269 15.9413C12.2469 15.7347 12.6643 15.1567 12.6649 14.5027L12.6663 12.1147L14.6663 11.2213Z" fill="white"/>
</g>
<circle cx="16.4449" cy="2.65637" r="2.55526" fill="white"/>
<path d="M16.4453 1.37875V3.93401" stroke="#272A2F" stroke-linecap="round"/>
<path d="M15.167 2.65638L17.7223 2.65638" stroke="#272A2F" stroke-linecap="round"/>
<defs>
<clipPath id="clip0_271_3875">
<rect width="16" height="16" fill="white" transform="translate(0 3.00002)"/>
</clipPath>
</defs>
</svg>
