<svg width="20" height="20" viewBox="0 0 20 20" fill="none" xmlns="http://www.w3.org/2000/svg">
<g clip-path="url(#clip0_234_4888)">
<path d="M20 19.1662C20 19.6262 19.6267 19.9995 19.1667 19.9995H0.833333C0.373333 19.9995 0 19.6262 0 19.1662C0 17.7854 1.11917 16.6662 2.5 16.6662H17.5C18.8808 16.6662 20 17.7854 20 19.1662ZM18.5092 5.1687L19.7592 3.90454C20.0833 3.57704 20.08 3.05037 19.7525 2.7262C19.4242 2.40204 18.8975 2.40537 18.5742 2.73287L17.3242 3.99704C17 4.32454 17.0033 4.8512 17.3308 5.17537C17.4933 5.33537 17.705 5.4162 17.9167 5.4162C18.1317 5.4162 18.3467 5.3337 18.5092 5.1687ZM15.3233 2.4662L15.9708 1.2162C16.1825 0.807871 16.0225 0.304538 15.6142 0.0928709C15.2075 -0.118796 14.7025 0.0395375 14.4908 0.449538L13.8433 1.69954C13.6317 2.10787 13.7917 2.6112 14.2 2.82287C14.3217 2.8862 14.4533 2.9162 14.5825 2.9162C14.8833 2.9162 15.175 2.75287 15.3233 2.4662ZM2.66917 5.17537C2.99667 4.8512 2.99917 4.32454 2.67583 3.99704L1.42583 2.73287C1.10333 2.40537 0.574167 2.40287 0.2475 2.7262C-0.08 3.05037 -0.0825 3.57704 0.240833 3.90454L1.49083 5.1687C1.65333 5.3337 1.86833 5.4162 2.08333 5.4162C2.295 5.4162 2.5075 5.33537 2.66917 5.17537ZM5.8 2.82287C6.20833 2.6112 6.36833 2.1087 6.15667 1.69954L5.50917 0.449538C5.29667 0.0395375 4.7925 -0.118796 4.38583 0.0928709C3.9775 0.304538 3.8175 0.807038 4.02917 1.2162L4.67667 2.4662C4.825 2.75287 5.11583 2.9162 5.4175 2.9162C5.54667 2.9162 5.6775 2.8862 5.8 2.82287ZM17.5 10.8329V14.1662C17.5 14.627 17.1275 14.9995 16.6667 14.9995H3.33333C2.8725 14.9995 2.5 14.627 2.5 14.1662V10.8329C2.5 6.69704 5.86417 3.33287 10 3.33287C14.1358 3.33287 17.5 6.69704 17.5 10.8329ZM10.8333 8.33287C10.8333 7.87204 10.4608 7.49954 10 7.49954C8.16167 7.49954 6.66667 8.99454 6.66667 10.8329C6.66667 11.2937 7.03917 11.6662 7.5 11.6662C7.96083 11.6662 8.33333 11.2937 8.33333 10.8329C8.33333 9.9137 9.08083 9.1662 10 9.1662C10.4608 9.1662 10.8333 8.7937 10.8333 8.33287Z" fill="white"/>
</g>
<defs>
<clipPath id="clip0_234_4888">
<rect width="20" height="20" fill="white"/>
</clipPath>
</defs>
</svg>
