<svg width="20" height="20" viewBox="0 0 20 20" fill="none" xmlns="http://www.w3.org/2000/svg">
<path opacity="0.4" d="M14.1665 17.0833H5.83317C3.33317 17.0833 1.6665 15.8333 1.6665 12.9167V7.08333C1.6665 4.16667 3.33317 2.91667 5.83317 2.91667H14.1665C16.6665 2.91667 18.3332 4.16667 18.3332 7.08333V12.9167C18.3332 15.8333 16.6665 17.0833 14.1665 17.0833Z" fill="#8D9195"/>
<path d="M9.99998 10.725C9.29998 10.725 8.59165 10.5083 8.04998 10.0667L5.44164 7.98333C5.17498 7.76667 5.12498 7.375 5.34165 7.10833C5.55831 6.84167 5.94998 6.79167 6.21665 7.00834L8.82497 9.09167C9.45831 9.6 10.5333 9.6 11.1666 9.09167L13.775 7.00834C14.0416 6.79167 14.4416 6.83333 14.65 7.10833C14.8666 7.375 14.825 7.775 14.55 7.98333L11.9416 10.0667C11.4083 10.5083 10.7 10.725 9.99998 10.725Z" fill="#8D9195"/>
</svg>
