<svg width="24" height="24" viewBox="0 0 24 24" fill="none" xmlns="http://www.w3.org/2000/svg">
<g clip-path="url(#clip0_271_3930)">
<path d="M5.29962 18.7C5.74968 19.1501 6.00251 19.7605 6.00251 20.397C6.00251 21.0335 5.74968 21.6439 5.29962 22.094C4.02105 22.9705 2.59388 23.6076 1.08762 23.974C0.941423 24.0078 0.789045 24.0039 0.644747 23.9628C0.500449 23.9216 0.368948 23.8445 0.262547 23.7387C0.156147 23.6329 0.0783252 23.5019 0.0363647 23.3578C-0.00559591 23.2137 -0.0103241 23.0614 0.0226226 22.915C0.387802 21.4079 1.0238 19.9797 1.89962 18.7C2.12259 18.4763 2.38753 18.2987 2.67926 18.1776C2.97098 18.0565 3.28375 17.9941 3.59962 17.9941C3.9155 17.9941 4.22826 18.0565 4.51999 18.1776C4.81171 18.2987 5.07666 18.4763 5.29962 18.7ZM6.25662 8.139C6.27262 8.116 6.28962 8.093 6.25662 8.139V8.139ZM17.9996 8.5C17.9996 7.83696 17.7362 7.20107 17.2674 6.73223C16.7985 6.26339 16.1627 6 15.4996 6C14.8366 6 14.2007 6.26339 13.7319 6.73223C13.263 7.20107 12.9996 7.83696 12.9996 8.5C12.9996 9.16304 13.263 9.79892 13.7319 10.2678C14.2007 10.7366 14.8366 11 15.4996 11C16.1627 11 16.7985 10.7366 17.2674 10.2678C17.7362 9.79892 17.9996 9.16304 17.9996 8.5ZM16.0236 17.629L16.0316 17.623C15.8239 18.3508 15.5483 19.0576 15.2086 19.734C14.4089 21.4772 13.0563 22.9078 11.3606 23.804C10.991 23.9581 10.589 24.0184 10.1905 23.9794C9.79194 23.9405 9.40923 23.8035 9.07647 23.5807C8.74371 23.358 8.47124 23.0563 8.28335 22.7027C8.09546 22.3491 7.99799 21.9544 7.99962 21.554V19C7.99568 18.2056 7.67834 17.4448 7.11659 16.883C6.55483 16.3213 5.79406 16.0039 4.99962 16H2.39162C1.99999 16.0017 1.61403 15.9064 1.26817 15.7226C0.922316 15.5389 0.627313 15.2724 0.409478 14.9469C0.191642 14.6215 0.0577468 14.2471 0.0197341 13.8573C-0.0182786 13.4676 0.0407733 13.0744 0.191623 12.713C1.06783 11.0547 2.46686 9.73195 4.17162 8.95C4.83957 8.61469 5.53766 8.34315 6.25662 8.139C6.22562 8.183 6.24062 8.161 6.25662 8.139C10.0876 2.8 14.4686 0.170998 20.4576 -2.16514e-06C20.9203 -0.00382482 21.3792 0.0837893 21.8079 0.257809C22.2366 0.431828 22.6267 0.688825 22.9559 1.01404C23.285 1.33926 23.5466 1.72628 23.7257 2.1529C23.9048 2.57951 23.9979 3.03731 23.9996 3.5C23.8286 9.531 21.3746 13.793 16.0326 17.623L16.0236 17.629ZM20.9996 3.458C20.9907 3.33219 20.9339 3.21459 20.8409 3.12939C20.7479 3.0442 20.6257 2.99789 20.4996 3C15.4636 3.144 12.1996 5 8.88762 9.614C8.07934 10.7714 7.35963 11.9882 6.73462 13.254C7.66645 13.5366 8.51577 14.0412 9.20969 14.7243C9.90361 15.4074 10.4214 16.2487 10.7186 17.176L12.8816 16.1C13.3876 15.8 13.8996 15.466 14.3866 15.117C18.9996 11.8 20.8556 8.536 20.9996 3.458ZM16.0316 17.623L16.0416 17.616L16.0326 17.623H16.0316Z" fill="white"/>
</g>
<defs>
<clipPath id="clip0_271_3930">
<rect width="24" height="24" fill="white"/>
</clipPath>
</defs>
</svg>
