<svg width="20" height="20" viewBox="0 0 20 20" fill="none" xmlns="http://www.w3.org/2000/svg">
<g clip-path="url(#clip0_234_4909)">
<path d="M17.4997 17.0833C17.4997 17.7733 16.9397 18.3333 16.2497 18.3333C15.5597 18.3333 14.9997 17.7733 14.9997 17.0833C14.9997 16.3933 15.5597 15.8333 16.2497 15.8333C16.9397 15.8333 17.4997 16.3933 17.4997 17.0833ZM1.24972 2.5C0.559717 2.5 -0.000282668 3.06 -0.000282668 3.75C-0.000282668 4.44 0.559717 5 1.24972 5C1.93972 5 2.49972 4.44 2.49972 3.75C2.49972 3.06 1.93972 2.5 1.24972 2.5ZM5.41638 0C4.72638 0 4.16638 0.56 4.16638 1.25C4.16638 1.94 4.72638 2.5 5.41638 2.5C6.10638 2.5 6.66638 1.94 6.66638 1.25C6.66638 0.56 6.10638 0 5.41638 0ZM7.14972 7.755L7.44972 7.45C11.8222 3.07833 16.1214 1.8 17.1614 2.83833C17.5314 3.20833 17.5322 3.90833 17.4681 4.42917C17.3831 5.11417 17.8697 5.73833 18.5556 5.82333C19.2397 5.91 19.8647 5.42167 19.9497 4.73667C20.1906 2.79 19.5281 1.66833 18.9297 1.07083C16.4681 -1.3925 10.7731 0.5925 5.68305 5.6825C5.57055 5.795 5.45888 5.90833 5.34972 6.02167C4.87055 6.51917 4.88555 7.31 5.38388 7.78917C5.62638 8.02167 5.93888 8.13833 6.25055 8.13833C6.57888 8.13833 6.90555 8.01 7.15138 7.755H7.14972ZM10.7106 17.3458C11.2789 16.9533 11.4206 16.175 11.0281 15.6075C10.6356 15.0392 9.85722 14.8958 9.28888 15.29C6.09222 17.4992 3.57805 17.9042 2.83805 17.1617C2.67972 17.0033 2.57805 16.7767 2.52972 16.4708C2.42222 15.79 1.78388 15.32 1.10055 15.4317C0.418884 15.5392 -0.0469493 16.1792 0.0605507 16.8617C0.192217 17.6958 0.531384 18.3917 1.06972 18.9292C1.78138 19.6408 2.76305 19.9892 3.93472 19.9892C5.81638 19.9892 8.18722 19.0892 10.7097 17.345L10.7106 17.3458ZM19.1664 7.49833C19.5164 7.49833 19.8297 7.7175 19.9497 8.04583C20.0697 8.37417 19.9714 8.74333 19.7039 8.96833L17.7331 10.5742L18.5481 13.0575C18.6597 13.3933 18.5464 13.7633 18.2656 13.98C17.9839 14.1958 17.5981 14.2108 17.3022 14.0183L15.0081 12.5242L12.7514 14.035C12.6106 14.1292 12.4489 14.1758 12.2872 14.1758C12.1114 14.1758 11.9347 14.1208 11.7872 14.01C11.5039 13.7983 11.3856 13.43 11.4922 13.0933L12.2756 10.5808L10.2947 8.96917C10.0281 8.74333 9.93055 8.375 10.0514 8.04667C10.1722 7.71917 10.4847 7.50083 10.8339 7.50083H13.3331L14.2181 5.12417C14.3397 4.79833 14.6514 4.58167 14.9989 4.58167C15.3464 4.58167 15.6581 4.7975 15.7797 5.12417L16.6647 7.50083H19.1647L19.1664 7.49833ZM6.18555 10.6142L4.60305 10.0308L3.99888 8.4275C3.87555 8.05917 3.47722 7.86 3.10888 7.98333C2.89972 8.05333 2.73472 8.2175 2.66472 8.4275L2.06722 10.0158L0.479717 10.6142C0.111384 10.7375 -0.0877827 11.1358 0.0355507 11.5042C0.105551 11.7133 0.269717 11.8783 0.479717 11.9483L2.08222 12.5517L2.66472 14.1333C2.73472 14.3425 2.89888 14.5075 3.10888 14.5775C3.47722 14.7008 3.87555 14.5017 3.99888 14.1333L4.58805 12.5367L6.18638 11.9483C6.39555 11.8783 6.56055 11.7142 6.63055 11.5042C6.75388 11.1358 6.55388 10.7375 6.18555 10.6142Z" fill="white"/>
</g>
<defs>
<clipPath id="clip0_234_4909">
<rect width="20" height="20" fill="white"/>
</clipPath>
</defs>
</svg>
