<svg width="20" height="20" viewBox="0 0 20 20" fill="none" xmlns="http://www.w3.org/2000/svg">
<g clip-path="url(#clip0_234_4900)">
<path d="M6.62917 18.9875C6.795 19.4883 6.3875 20 5.84167 20H0.825C0.279167 20 -0.128333 19.4892 0.0375 18.9875C0.481667 17.6417 1.79 16.6667 3.33333 16.6667C4.87667 16.6667 6.185 17.6417 6.62917 18.9875ZM16.6667 16.6667C15.1225 16.6667 13.815 17.6417 13.3708 18.9875C13.205 19.4883 13.6125 20 14.1583 20H19.175C19.7208 20 20.1283 19.4892 19.9625 18.9875C19.5183 17.6417 18.21 16.6667 16.6667 16.6667ZM16.6667 15C18.0475 15 19.1667 13.8808 19.1667 12.5C19.1667 11.1192 18.0475 10 16.6667 10C15.2858 10 14.1667 11.1192 14.1667 12.5C14.1667 13.8808 15.2858 15 16.6667 15ZM3.33333 15C4.71417 15 5.83333 13.8808 5.83333 12.5C5.83333 11.1192 4.71417 10 3.33333 10C1.9525 10 0.833333 11.1192 0.833333 12.5C0.833333 13.8808 1.9525 15 3.33333 15ZM11.25 17.5H8.75C8.06 17.5 7.5 18.0592 7.5 18.75C7.5 19.4408 8.06 20 8.75 20H11.25C11.94 20 12.5 19.4408 12.5 18.75C12.5 18.0592 11.94 17.5 11.25 17.5ZM15.4167 1.66667H15V1.2125C15 0.5425 14.4575 0 13.7875 0H13.7558C13.0625 0 12.5 0.5625 12.5 1.25583V1.66667H7.5V1.25C7.5 0.56 6.94 0 6.25 0C5.56 0 5 0.56 5 1.25V1.66667H4.58333C2.05167 1.66667 0 3.71833 0 6.25V8.33333C0 9.02333 0.56 9.58333 1.25 9.58333C1.94 9.58333 2.5 9.02333 2.5 8.33333H17.5C17.5 9.02333 18.06 9.58333 18.75 9.58333C19.44 9.58333 20 9.02333 20 8.33333V6.25C20 3.71833 17.9483 1.66667 15.4167 1.66667Z" fill="white"/>
</g>
<defs>
<clipPath id="clip0_234_4900">
<rect width="20" height="20" fill="white"/>
</clipPath>
</defs>
</svg>
