<svg width="18" height="18" viewBox="0 0 18 18" fill="none" xmlns="http://www.w3.org/2000/svg">
<g clip-path="url(#clip0_234_5087)">
<path d="M16.4563 3.77702C16.4255 3.75902 11.0668 1.28553 11.0668 1.28553C9.77994 0.576819 8.21967 0.576819 6.93281 1.28553C6.93281 1.28553 1.57482 3.75902 1.54332 3.77702C0.108489 4.55809 -0.421492 6.35447 0.359575 7.7893C0.63193 8.28964 1.04298 8.70065 1.54332 8.97305C1.57482 8.99105 3.74983 9.99606 3.74983 9.99606V13.5413C3.75194 15.0683 4.74634 16.4167 6.20458 16.8698C7.11281 17.1321 8.05454 17.2602 8.99982 17.2501C9.94514 17.2602 10.8868 17.1321 11.7951 16.8698C13.2533 16.4167 14.2477 15.0683 14.2498 13.5413V9.99602L15.7498 9.3045V14.625C15.7498 15.2463 16.2535 15.75 16.8748 15.75C17.4961 15.75 17.9998 15.2463 17.9998 14.625V6.34575C17.97 5.23984 17.4415 4.25701 16.4563 3.77702ZM11.9998 13.5412C12.0025 14.0772 11.6569 14.5528 11.1463 14.7157C9.74014 15.093 8.25943 15.093 6.85329 14.7157C6.34268 14.5528 5.99706 14.0772 5.9998 13.5412V11.034L6.93281 11.4645C8.21921 12.1751 9.7804 12.1751 11.0668 11.4645L11.9998 11.034V13.5412H11.9998ZM15.3635 7.005C15.3635 7.005 10.0168 9.47251 9.98676 9.49051C9.3748 9.83856 8.62474 9.83856 8.01278 9.49051C7.98279 9.47251 2.63601 7.005 2.63601 7.005C2.28807 6.8275 2.14991 6.40154 2.32741 6.0536C2.39516 5.92078 2.50319 5.81278 2.63601 5.745C2.63601 5.745 7.98275 3.27749 8.01278 3.25949C8.62474 2.91144 9.3748 2.91144 9.98676 3.25949C10.0168 3.27749 15.3635 5.745 15.3635 5.745C15.7115 5.9225 15.8496 6.34846 15.6721 6.6964C15.6044 6.82925 15.4963 6.93725 15.3635 7.005Z" fill="#01C750"/>
</g>
<defs>
<clipPath id="clip0_234_5087">
<rect width="18" height="18" fill="white"/>
</clipPath>
</defs>
</svg>
