<svg width="17" height="23" viewBox="0 0 17 23" fill="none" xmlns="http://www.w3.org/2000/svg">
<path d="M0.187342 16.4482C0.253324 16.4931 0.331169 16.5174 0.410987 16.518L4.76534 16.5104H6.15194L10.3565 16.5028C10.4266 16.503 10.4956 16.4846 10.5564 16.4495C10.6177 16.4143 10.6687 16.3636 10.7042 16.3024C10.7397 16.2413 10.7584 16.1718 10.7586 16.1011L10.7586 11.9659C10.7584 11.8958 10.74 11.8269 10.7051 11.7661C10.6702 11.7053 10.62 11.6547 10.5595 11.6193C10.4981 11.5826 10.4279 11.5635 10.3565 11.5638H5.93769V16.06H4.94784V11.1845C4.94718 11.1777 4.94718 11.1708 4.94784 11.1639L4.94784 0.403048C4.94784 0.296283 4.90542 0.19389 4.82993 0.118395C4.75444 0.0429004 4.65204 0.000488281 4.54528 0.000488281L0.411881 0.0148012C0.341444 0.0149456 0.272279 0.033569 0.211293 0.0688108C0.150306 0.104053 0.0996341 0.154679 0.0643377 0.215634C0.0283496 0.276914 0.00950174 0.346744 0.00976842 0.417809L0.00976842 16.115C0.0100128 16.1809 0.0264558 16.2458 0.0576532 16.3039C0.0888507 16.362 0.133847 16.4116 0.188684 16.4482H0.187342Z" fill="white"/>
<mask id="mask0_234_4918" style="mask-type:luminance" maskUnits="userSpaceOnUse" x="0" y="0" width="11" height="17">
<path d="M0.187342 16.4482C0.253324 16.4931 0.331169 16.5174 0.410987 16.518L4.76534 16.5104H6.15194L10.3565 16.5028C10.4266 16.503 10.4956 16.4846 10.5564 16.4495C10.6177 16.4143 10.6687 16.3636 10.7042 16.3024C10.7397 16.2413 10.7584 16.1718 10.7586 16.1011L10.7586 11.9659C10.7584 11.8958 10.74 11.8269 10.7051 11.7661C10.6702 11.7053 10.62 11.6547 10.5595 11.6193C10.4981 11.5826 10.4279 11.5635 10.3565 11.5638H5.93769V16.06H4.94784V11.1845C4.94718 11.1777 4.94718 11.1708 4.94784 11.1639L4.94784 0.403048C4.94784 0.296283 4.90542 0.19389 4.82993 0.118395C4.75444 0.0429004 4.65204 0.000488281 4.54528 0.000488281L0.411881 0.0148012C0.341444 0.0149456 0.272279 0.033569 0.211293 0.0688108C0.150306 0.104053 0.0996341 0.154679 0.0643377 0.215634C0.0283496 0.276914 0.00950174 0.346744 0.00976842 0.417809L0.00976842 16.115C0.0100128 16.1809 0.0264558 16.2458 0.0576532 16.3039C0.0888507 16.362 0.133847 16.4116 0.188684 16.4482H0.187342Z" fill="white"/>
</mask>
<g mask="url(#mask0_234_4918)">
<path style="mix-blend-mode:screen" opacity="0.37" d="M6.33934 -0.289795C6.33934 -0.289795 1.79847 0.560055 0.382796 16.912C0.352828 17.2573 0.024965 17.604 -0.00321421 17.9632L-0.363281 -0.289795L6.33934 -0.289795Z" fill="url(#paint0_linear_234_4918)"/>
<path style="mix-blend-mode:screen" opacity="0.22" d="M10.9464 16.8959L5.74268 11.2493H10.7165L10.9464 16.8959Z" fill="url(#paint1_linear_234_4918)"/>
</g>
<path d="M16.679 16.4482V11.621V4.88351V0.401678C16.6788 0.347242 16.6677 0.293392 16.6463 0.243337C16.6152 0.171204 16.5637 0.109733 16.4982 0.0664981C16.4326 0.023263 16.3558 0.000151715 16.2773 1.22237e-05L6.33942 1.22237e-05C6.23608 -0.000795319 6.13644 0.0384368 6.0614 0.109483C5.98635 0.18053 5.94172 0.277873 5.93686 0.381103C5.93621 0.387945 5.93621 0.394835 5.93686 0.401678V4.53284C5.93618 4.53968 5.93618 4.54657 5.93686 4.55341C5.93975 4.6213 5.96002 4.6873 5.99574 4.7451C6.03145 4.8029 6.08141 4.85056 6.14083 4.88351C6.20094 4.91815 6.26916 4.93621 6.33853 4.93584L10.7627 4.93584V0.450432L11.7543 0.450432V11.621L11.7543 17.1629C11.7543 17.234 11.7356 17.3037 11.6999 17.3652C11.6642 17.4266 11.6129 17.4775 11.5512 17.5127C11.491 17.548 11.4224 17.5664 11.3526 17.5659L0.40256 17.561C0.296258 17.561 0.19427 17.6031 0.118852 17.678C0.0434341 17.7529 0.000708681 17.8546 0 17.9609L0 17.9631L0 22.0921C0.000162382 22.1573 0.0161642 22.2215 0.046629 22.2791C0.0770938 22.3368 0.12111 22.3862 0.17489 22.423C0.241828 22.4696 0.321502 22.4942 0.403008 22.4937L16.2791 22.4982C16.3605 22.4987 16.4401 22.4742 16.5072 22.428C16.5687 22.3856 16.6172 22.3269 16.6472 22.2584C16.6703 22.2073 16.6822 22.1518 16.6821 22.0956V17.5123L16.679 16.4482Z" fill="white"/>
<mask id="mask1_234_4918" style="mask-type:luminance" maskUnits="userSpaceOnUse" x="0" y="0" width="17" height="23">
<path d="M16.679 16.4482V11.621V4.88351V0.401678C16.6788 0.347242 16.6677 0.293392 16.6463 0.243337C16.6152 0.171204 16.5637 0.109733 16.4982 0.0664981C16.4326 0.023263 16.3558 0.000151715 16.2773 1.22237e-05L6.33942 1.22237e-05C6.23608 -0.000795319 6.13644 0.0384368 6.0614 0.109483C5.98635 0.18053 5.94172 0.277873 5.93686 0.381103C5.93621 0.387945 5.93621 0.394835 5.93686 0.401678V4.53284C5.93618 4.53968 5.93618 4.54657 5.93686 4.55341C5.93975 4.6213 5.96002 4.6873 5.99574 4.7451C6.03145 4.8029 6.08141 4.85056 6.14083 4.88351C6.20094 4.91815 6.26916 4.93621 6.33853 4.93584L10.7627 4.93584V0.450432L11.7543 0.450432V11.621L11.7543 17.1629C11.7543 17.234 11.7356 17.3037 11.6999 17.3652C11.6642 17.4266 11.6129 17.4775 11.5512 17.5127C11.491 17.548 11.4224 17.5664 11.3526 17.5659L0.40256 17.561C0.296258 17.561 0.19427 17.6031 0.118852 17.678C0.0434341 17.7529 0.000708681 17.8546 0 17.9609L0 17.9631L0 22.0921C0.000162382 22.1573 0.0161642 22.2215 0.046629 22.2791C0.0770938 22.3368 0.12111 22.3862 0.17489 22.423C0.241828 22.4696 0.321502 22.4942 0.403008 22.4937L16.2791 22.4982C16.3605 22.4987 16.4401 22.4742 16.5072 22.428C16.5687 22.3856 16.6172 22.3269 16.6472 22.2584C16.6703 22.2073 16.6822 22.1518 16.6821 22.0956V17.5123L16.679 16.4482Z" fill="white"/>
</mask>
<g mask="url(#mask1_234_4918)">
<path style="mix-blend-mode:screen" opacity="0.17" d="M0.00906271 16.9469C0.00906271 16.9469 7.23993 22.8126 18.2325 21.6228L18.3144 22.4982L-0.307617 22.7303L0.00906271 16.9469Z" fill="url(#paint2_linear_234_4918)"/>
<path style="mix-blend-mode:screen" opacity="0.22" d="M5.66846 5.14292L10.7604 0.450409V4.93582L5.66846 5.14292Z" fill="url(#paint3_linear_234_4918)"/>
</g>
<defs>
<linearGradient id="paint0_linear_234_4918" x1="0.11666" y1="17.5821" x2="3.13496" y2="-1.20405" gradientUnits="userSpaceOnUse">
<stop/>
<stop offset="1" stop-color="white"/>
</linearGradient>
<linearGradient id="paint1_linear_234_4918" x1="10.3779" y1="10.8955" x2="7.65215" y2="15.1542" gradientUnits="userSpaceOnUse">
<stop/>
<stop offset="1" stop-color="white"/>
</linearGradient>
<linearGradient id="paint2_linear_234_4918" x1="-0.748644" y1="19.7961" x2="17.3594" y2="21.0834" gradientUnits="userSpaceOnUse">
<stop stop-color="white"/>
<stop offset="1"/>
</linearGradient>
<linearGradient id="paint3_linear_234_4918" x1="11.0793" y1="4.63032" x2="7.23889" y2="2.17247" gradientUnits="userSpaceOnUse">
<stop/>
<stop offset="1" stop-color="white"/>
</linearGradient>
</defs>
</svg>
