<svg width="24" height="24" viewBox="0 0 24 24" fill="none" xmlns="http://www.w3.org/2000/svg">
<path d="M24.0105 9.49999C24.0105 12.898 22.2465 16.119 19.4075 17.905C18.8045 18.284 18.3235 18.967 17.9745 19.932C17.5295 21.171 16.7025 22.223 15.5825 22.972C14.5485 23.664 13.3525 24.009 12.1575 24.009C10.8705 24.009 9.58455 23.609 8.50355 22.814C7.83655 22.323 7.69255 21.385 8.18355 20.717C8.67355 20.049 9.61355 19.905 10.2805 20.397C11.3355 21.171 12.8285 21.205 13.9145 20.479C14.4965 20.089 14.9245 19.549 15.1515 18.917C15.7315 17.305 16.6265 16.111 17.8085 15.366C19.7525 14.143 21.0085 11.841 21.0085 9.49999C21.0085 7.45499 20.0745 5.56999 18.4465 4.32799C16.8145 3.08199 14.6995 2.69199 12.6455 3.25699C11.8445 3.47699 11.1035 3.85999 10.4455 4.39699C9.80255 4.91999 8.85755 4.82399 8.33555 4.18199C7.81255 3.53999 7.90855 2.59499 8.55055 2.07199C9.53455 1.26999 10.6455 0.69499 11.8525 0.36399C14.8165 -0.44901 17.8845 0.12699 20.2655 1.94399C22.6445 3.75799 24.0085 6.51299 24.0085 9.50199L24.0105 9.49999ZM14.5105 7.99999C15.3375 7.99999 16.0105 8.67299 16.0105 9.49999C16.0105 10.327 16.6825 11 17.5105 11C18.3385 11 19.0105 10.329 19.0105 9.49999C19.0105 7.01899 16.9915 4.99999 14.5105 4.99999C12.0295 4.99999 10.0105 7.01899 10.0105 9.49999V11.001C10.0105 11.545 10.2135 12.047 10.5805 12.414C11.1245 12.957 11.8095 13 12.0075 13H12.0095C12.0095 13.03 11.9885 13.076 11.9695 13.101C11.2145 13.392 10.8235 14.233 11.0955 15C11.3135 15.616 11.8915 16 12.5095 16C12.6755 16 12.8445 15.972 13.0095 15.914C14.1865 15.497 15.0085 14.299 15.0085 13C15.0085 11.701 14.1735 10.585 13.0095 10.172V9.49999C13.0095 8.67299 13.6815 7.99999 14.5085 7.99999H14.5105ZM5.86755 4.93899C5.28155 4.35299 4.33255 4.35299 3.74655 4.93899C3.16055 5.52399 3.16055 6.47499 3.74655 7.05999C6.74555 10.06 6.74555 14.939 3.74655 17.939C3.16055 18.524 3.16055 19.475 3.74655 20.06C4.03955 20.353 4.42355 20.499 4.80755 20.499C5.19155 20.499 5.57555 20.353 5.86855 20.06C10.0375 15.891 10.0365 9.10799 5.86755 4.93899ZM2.55955 9.02399C1.97355 8.43899 1.02355 8.43899 0.437547 9.02399C-0.147453 9.60999 -0.147453 10.56 0.437547 11.146C0.799547 11.507 0.998547 11.988 0.998547 12.499C0.998547 13.01 0.799547 13.491 0.437547 13.852C-0.148453 14.438 -0.148453 15.388 0.437547 15.974C0.730547 16.267 1.11455 16.413 1.49855 16.413C1.88255 16.413 2.26655 16.267 2.55955 15.974C3.48755 15.046 3.99855 13.812 3.99855 12.499C3.99855 11.186 3.48755 9.95199 2.55955 9.02399Z" fill="white"/>
</svg>
