<svg width="20" height="20" viewBox="0 0 20 20" fill="none" xmlns="http://www.w3.org/2000/svg">
<g clip-path="url(#clip0_234_5590)">
<path d="M10 5.83333C7.7 5.83333 5.83333 7.7 5.83333 10C5.83333 12.3 7.7 14.1667 10 14.1667C12.3 14.1667 14.1667 12.3 14.1667 10C14.1667 7.7 12.3 5.83333 10 5.83333ZM10 11.6667C9.08333 11.6667 8.33333 10.9167 8.33333 10C8.33333 9.08333 9.08333 8.33333 10 8.33333C10.9167 8.33333 11.6667 9.08333 11.6667 10C11.6667 10.9167 10.9167 11.6667 10 11.6667ZM14.125 5.875C13.6333 5.38333 13.6333 4.59167 14.125 4.10833L15.3 2.93333C15.7917 2.44167 16.5833 2.44167 17.0667 2.93333C17.5583 3.425 17.5583 4.21667 17.0667 4.7L15.8917 5.875C15.65 6.11667 15.325 6.24167 15.0083 6.24167C14.6917 6.24167 14.3667 6.11667 14.125 5.875ZM5.875 14.125C6.36667 14.6167 6.36667 15.4083 5.875 15.8917L4.7 17.0667C4.45833 17.3083 4.13333 17.4333 3.81667 17.4333C3.5 17.4333 3.175 17.3083 2.93333 17.0667C2.44167 16.575 2.44167 15.7833 2.93333 15.3L4.10833 14.125C4.6 13.6333 5.39167 13.6333 5.875 14.125ZM2.925 4.7C2.43333 4.20833 2.43333 3.41667 2.925 2.93333C3.41667 2.44167 4.20833 2.44167 4.69167 2.93333L5.86667 4.10833C6.35833 4.6 6.35833 5.39167 5.86667 5.875C5.625 6.11667 5.3 6.24167 4.98333 6.24167C4.66667 6.24167 4.34167 6.11667 4.1 5.875L2.925 4.7ZM17.0667 15.3083C17.5583 15.8 17.5583 16.5917 17.0667 17.075C16.825 17.3167 16.5 17.4417 16.1833 17.4417C15.8667 17.4417 15.5417 17.3167 15.3 17.075L14.125 15.9C13.6333 15.4083 13.6333 14.6167 14.125 14.1333C14.6167 13.6417 15.4083 13.6417 15.8917 14.1333L17.0667 15.3083ZM19.9917 10.0083C19.9917 10.7 19.4333 11.2583 18.7417 11.2583H17.075C16.3833 11.2583 15.825 10.7 15.825 10.0083C15.825 9.31667 16.3833 8.75833 17.075 8.75833H18.7417C19.4333 8.75833 19.9917 9.31667 19.9917 10.0083ZM2.91667 11.25H1.25C0.558333 11.25 0 10.6917 0 10C0 9.30833 0.558333 8.75 1.25 8.75H2.91667C3.60833 8.75 4.16667 9.30833 4.16667 10C4.16667 10.6917 3.60833 11.25 2.91667 11.25ZM8.75 2.91667V1.25C8.75 0.558333 9.30833 0 10 0C10.6917 0 11.25 0.558333 11.25 1.25V2.91667C11.25 3.60833 10.6917 4.16667 10 4.16667C9.30833 4.16667 8.75 3.60833 8.75 2.91667ZM11.25 17.0833V18.75C11.25 19.4417 10.6917 20 10 20C9.30833 20 8.75 19.4417 8.75 18.75V17.0833C8.75 16.3917 9.30833 15.8333 10 15.8333C10.6917 15.8333 11.25 16.3917 11.25 17.0833Z" fill="white"/>
</g>
<defs>
<clipPath id="clip0_234_5590">
<rect width="20" height="20" fill="white"/>
</clipPath>
</defs>
</svg>
