<svg width="18" height="18" viewBox="0 0 18 18" fill="none" xmlns="http://www.w3.org/2000/svg">
<g clip-path="url(#clip0_234_5082)">
<path d="M9.61691 6.66225L9.39641 6.8385C9.16016 7.02675 8.82341 7.0275 8.58641 6.84L8.36141 6.66225C7.59191 6.05325 7.06241 5.39925 6.78716 4.71825C6.70616 4.51725 6.73016 4.28925 6.85091 4.11C6.97241 3.93075 7.17416 3.82275 7.39091 3.82275H8.98991H10.5882C10.8049 3.82275 11.0074 3.93075 11.1282 4.11C11.2489 4.28925 11.2729 4.51725 11.1919 4.71825C10.9174 5.39625 10.3872 6.05025 9.61691 6.66225ZM15.7137 14.3438C15.8532 15.2708 15.5787 16.2135 14.9629 16.929C14.3374 17.655 13.4307 18.0713 12.4737 18.0713H5.52566C4.56941 18.0713 3.66191 17.6543 3.03716 16.929C2.41991 16.212 2.14616 15.2693 2.28566 14.34C2.57216 12.4335 3.56366 10.6658 5.23766 9.07125C3.56366 7.4775 2.57216 5.70975 2.28566 3.8025C2.14616 2.874 2.41991 1.9305 3.03716 1.21425C3.66191 0.489004 4.56941 0.0727539 5.52566 0.0727539H12.4737C13.4299 0.0727539 14.3374 0.489004 14.9629 1.21425C15.5794 1.9305 15.8532 2.8725 15.7137 3.80025C15.4294 5.7015 14.4372 7.47075 12.7587 9.072C14.4372 10.674 15.4302 12.4418 15.7137 14.3438ZM13.4884 14.6768C13.2379 13.0013 12.1797 11.4113 10.3452 9.95175C10.0767 9.73875 9.92066 9.414 9.92066 9.07125C9.92066 8.7285 10.0767 8.40375 10.3452 8.19075C12.1804 6.73125 13.2379 5.142 13.4884 3.4665C13.5454 3.084 13.3684 2.81025 13.2574 2.682C13.0602 2.4525 12.7744 2.32125 12.4737 2.32125H5.52566C5.22491 2.32125 4.93916 2.45325 4.74191 2.682C4.63091 2.811 4.45316 3.08475 4.51091 3.468C4.76366 5.151 5.82116 6.7395 7.65266 8.1885C7.92191 8.4015 8.07941 8.727 8.07941 9.0705C8.07941 9.414 7.92191 9.7395 7.65266 9.9525C5.82116 11.4023 4.76366 12.99 4.51091 14.673C4.45316 15.057 4.63091 15.33 4.74266 15.459C4.93991 15.6885 5.22566 15.8198 5.52641 15.8198H12.4744C12.7752 15.8198 13.0609 15.6885 13.2582 15.4598C13.3692 15.3315 13.5462 15.0578 13.4892 14.676L13.4884 14.6768Z" fill="#F58148"/>
</g>
<defs>
<clipPath id="clip0_234_5082">
<rect width="18" height="18" fill="white"/>
</clipPath>
</defs>
</svg>
