<svg width="153" height="222" viewBox="0 0 153 222" fill="none" xmlns="http://www.w3.org/2000/svg">
<g style="mix-blend-mode:multiply" opacity="0.33">
<path d="M93.7705 221.981C124.572 221.981 149.541 218.067 149.541 213.238C149.541 208.41 124.572 204.495 93.7705 204.495C62.9693 204.495 38 208.41 38 213.238C38 218.067 62.9693 221.981 93.7705 221.981Z" fill="#777777"/>
</g>
<path d="M65.7655 172.512C58.0592 175.858 49.885 176.638 42.1929 175.199C39.0381 174.618 35.9683 173.66 33.0475 172.363C29.9068 170.966 26.9434 169.194 24.1643 167.096C20.0098 163.962 16.2666 160.112 13.0125 155.752C11.4528 153.668 10.0207 151.47 8.69499 149.18C7.39761 146.94 6.22078 144.579 5.17862 142.119C3.54095 138.312 2.24355 134.278 1.35027 130.095C-0.47882 121.56 -0.570996 112.45 1.82526 103.581C7.82298 104.602 13.927 105.183 19.9531 106.09C23.2001 106.58 26.4187 107.161 29.6019 107.948C30.8426 108.26 32.0833 108.6 33.3169 108.983C38.4922 110.599 43.4832 112.911 47.8149 116.257C49.9488 117.916 51.9339 119.816 53.685 122.006C55.2092 123.906 56.5492 125.984 57.7189 128.203C60.4342 133.371 62.242 139.276 63.3905 145.373C63.3976 145.416 63.3976 145.451 63.4118 145.494C65.0424 154.235 65.411 163.395 65.7655 172.512Z" fill="#E2E2E2"/>
<path d="M18.3651 112.017C14.9054 120.191 8.5603 126.884 1.35027 130.095C-0.47882 121.56 -0.570996 112.45 1.82526 103.581C7.82298 104.602 13.927 105.183 19.9531 106.09C19.8113 108.075 19.1662 110.139 18.3651 112.017Z" fill="#3D3D3D"/>
<path d="M35.2451 141.183C29.0489 148.337 21.1867 153.455 13.0195 155.752C11.4599 153.668 10.0278 151.47 8.70202 149.18C7.40464 146.94 6.22776 144.579 5.18561 142.119C11.2542 140.737 17.1669 137.944 22.1792 133.314C28.6448 127.345 33.2034 117.951 33.3168 108.983C38.4921 110.599 43.4831 112.911 47.8148 116.257C45.6312 125.48 41.2357 134.257 35.2451 141.183Z" fill="#3D3D3D"/>
<path d="M63.3833 145.366C63.3054 145.607 63.2274 145.841 63.1565 146.082C59.7464 156.476 53.536 165.897 45.7163 172.54C44.5891 173.497 43.4051 174.405 42.1857 175.206C39.0309 174.625 35.9611 173.668 33.0403 172.37C29.8996 170.974 26.9362 169.201 24.1571 167.103C31.4735 164.118 38.3787 159.148 44.0999 152.697C50.1827 145.834 54.8901 137.313 57.7046 128.203C60.427 133.364 62.2348 139.269 63.3833 145.366Z" fill="#3D3D3D"/>
<path opacity="0.25" d="M2.22925 103.999C2.22925 103.999 6.36953 105.637 13.9837 106.324C21.5978 107.012 55.8259 109.635 59.6613 139.532C59.6613 139.532 48.3536 117.965 15.0471 111.542C14.1963 111.379 13.3598 111.131 12.5445 110.812C10.2262 109.905 5.76691 107.792 2.22925 103.999Z" fill="#F7F7F7"/>
<path d="M91.8833 180.743C92.0889 180.743 92.5072 180.743 92.6986 180.736C94.3646 180.679 99.1855 180.367 102.844 178.538C116.229 171.846 119.844 159.134 119.873 145.572C119.908 133.321 117.845 124.481 115.08 117.469C109.487 103.276 111.727 92.8189 112.372 84.0988C112.797 78.5477 112.578 73.7197 109.281 69.0761C97.4131 64.0851 92.3583 64.1206 80.8308 70.1821C81.7311 75.4567 78.6614 80.313 76.2013 84.7865C67.2048 101.078 62.1854 110.89 55.0746 130.436C53.3519 135.15 51.1045 144.643 50.8138 150.527C50.5373 156.008 51.9269 164.558 54.5713 169.003C58.2932 175.256 64.8936 180.743 69.0339 183.458" fill="#A3A3A3"/>
<path d="M101.036 179.297C99.1498 179.375 101.036 179.297 101.036 179.297V179.297Z" fill="#A3A3A3"/>
<path d="M120.206 185.542C121.787 182.019 123.247 178.432 124.417 174.752C126.303 168.804 126.756 165.373 126.026 159.113C125.58 155.277 121.73 145.699 118.185 143.7C115.371 142.112 117.363 144.338 114.286 143.7L101.497 168.095L104.559 189.576L120.206 185.542Z" fill="#A3A3A3"/>
<path d="M122.496 151.811C122.496 151.811 130.776 161.247 121.496 180.126C121.496 180.126 127.813 165.082 122.496 151.811Z" fill="#C1C1C1"/>
<path d="M148.89 87.6293C148.635 88.6715 147.968 89.4797 147.429 90.3517C144.409 95.2435 141.368 99.7028 138.178 104.056C135.207 108.125 124.459 118.703 124.53 118.894C124.41 118.532 124.686 120.383 124.566 120.021C124.353 120.51 124.147 121 123.935 121.496C123.779 121.007 123.623 120.518 123.467 120.028C123.268 120.532 123.07 121.042 122.871 121.546C119.738 118.54 116.682 115.796 114.066 112.095C111.861 108.969 109.912 105.481 107.423 102.666L106.36 104.24C104.899 96.1438 107.912 81.7238 110.202 73.9041C113.052 72.5571 119.887 95.3994 124.871 104.573C127.352 102.22 129.84 99.8658 132.322 97.5121C136.441 93.6129 140.553 89.7066 144.679 85.8002C145.7 84.829 147.117 83.8152 148.209 84.6872C148.954 85.2756 149.152 86.5801 148.89 87.6293Z" fill="#A3A3A3"/>
<path d="M117.689 12.9343C125.289 19.2156 129.77 28.5099 134.023 37.4994C135.512 40.6401 137.015 43.7736 138.511 46.9143C139.837 49.6934 140.772 52.7631 142.616 55.209C141.148 55.7053 139.688 56.2015 138.22 56.6907C138.695 56.5844 139.192 56.478 139.659 56.5915C140.134 56.7049 140.574 57.0948 140.581 57.5769C140.581 58.0519 140.191 58.4206 139.822 58.7183C127.777 68.438 113.457 72.713 98.1149 72.713C90.5504 72.713 82.7094 71.3589 75.471 69.2108C68.02 66.9989 61.604 63.128 54.713 59.6825C54.713 59.5549 54.713 59.4202 54.713 59.2926C55.1029 59.0657 55.4999 58.8388 55.8898 58.6191C54.8902 58.4347 53.8835 58.2504 52.8839 58.0732C53.6141 57.5556 54.3514 57.0381 55.0816 56.5206C53.926 56.712 52.7705 56.8963 51.6149 57.0877C53.607 53.4721 55.4786 49.984 57.0029 46.1628C58.5626 42.2565 59.9947 38.3006 61.5898 34.4084C64.6525 26.9503 68.4453 19.5701 74.3225 14.1466C80.1572 8.75859 87.9131 5.58249 95.7825 5.36272C103.652 5.14295 111.571 7.87949 117.689 12.9343Z" fill="#A3A3A3"/>
<path d="M119.88 145.572C119.851 159.134 116.236 171.846 102.851 178.538C99.1854 180.367 94.3645 180.679 92.7056 180.736C92.5071 180.743 91.309 180.743 91.8903 180.743C92.5922 173.717 91.6209 166.67 89.9336 162.048C87.5161 155.433 83.3758 149.996 77.5057 145.154C83.872 131.109 88.6291 115.987 91.5996 100.369C92.3015 96.6755 92.9112 92.9181 94.1589 89.4301C95.3996 85.9491 97.3492 82.695 100.107 80.9156C100.15 81.745 100.192 82.5816 100.242 83.404C101.064 82.4185 101.879 81.426 102.702 80.4406C102.744 80.9014 102.78 81.3622 102.815 81.8301C104.446 79.6536 107.388 79.7174 109.522 81.0857C110.649 81.8088 111.627 82.8581 112.379 84.0917C111.734 92.8117 109.494 103.269 115.087 117.462C117.845 124.481 119.915 133.321 119.88 145.572Z" fill="#E2E2E2"/>
<mask id="mask0_0_35" style="mask-type:luminance" maskUnits="userSpaceOnUse" x="77" y="80" width="43" height="101">
<path d="M119.88 145.572C119.851 159.134 116.236 171.846 102.851 178.538C99.1854 180.367 94.3645 180.679 92.7056 180.736C92.5071 180.743 91.309 180.743 91.8903 180.743C92.5922 173.717 91.6209 166.67 89.9336 162.048C87.5161 155.433 83.3758 149.996 77.5057 145.154C83.872 131.109 88.6291 115.987 91.5996 100.369C92.3015 96.6755 92.9112 92.9181 94.1589 89.4301C95.3996 85.9491 97.3492 82.695 100.107 80.9156C100.15 81.745 100.192 82.5816 100.242 83.404C101.064 82.4185 101.879 81.426 102.702 80.4406C102.744 80.9014 102.78 81.3622 102.815 81.8301C104.446 79.6536 107.388 79.7174 109.522 81.0857C110.649 81.8088 111.627 82.8581 112.379 84.0917C111.734 92.8117 109.494 103.269 115.087 117.462C117.845 124.481 119.915 133.321 119.88 145.572Z" fill="white"/>
</mask>
<g mask="url(#mask0_0_35)">
<path d="M114.159 102.95C114.159 102.95 123.8 150.038 115.257 164.791C112.62 169.343 109.281 173.306 104.815 176.085C102.61 177.453 100.951 178.311 98.4623 179.07C97.7676 179.282 94.5135 179.672 93.4572 179.793C95.5202 179.211 98.5404 177.985 99.1997 177.673C105.453 174.71 109.274 170.754 112.89 164.841C117.214 157.766 117.235 148.131 116.782 140.014C115.342 114.506 111.45 103.453 114.159 102.95Z" fill="#F7F7F7"/>
</g>
<path d="M102.532 157.709C101.759 157.851 101.071 157.333 100.525 156.653C96.4205 151.577 92.7836 146.288 88.9553 140.361C88.6859 139.943 88.4165 139.525 88.14 139.092C85.8501 135.519 83.1135 131.577 81.4617 127.508C79.8949 123.672 79.1008 119.433 78.6613 115.186C77.8389 107.168 78.3777 98.5614 82.0288 91.798C83.0568 89.8909 84.6023 88.0122 86.4739 88.1469C87.9273 88.2532 89.1609 89.6002 89.8131 91.1812C90.4724 92.7621 90.6355 93.4995 90.99 95.2222C91.9967 100.029 93.5138 121.957 94.7828 126.771C95.0664 127.862 96.1228 130.812 97.4272 134.555C99.4477 140.368 102.085 148.089 103.467 153.782C103.836 155.285 103.787 157.475 102.532 157.709Z" fill="#A3A3A3"/>
<path d="M77.3427 12.8563C77.9524 10.6161 68.8849 5.34856 63.1211 1.66202C61.8237 0.832548 60.0514 0.570236 58.6618 1.22956C56.932 2.05194 56.4145 4.22132 56.0954 6.10713C55.6559 8.72316 55.2092 11.3675 55.3723 14.0119C55.5354 16.6634 56.3577 19.3503 58.1585 21.2999C59.9238 23.207 62.4831 24.235 65.0565 24.6249C67.63 25.0148 70.2531 24.8234 72.8479 24.632L77.3427 12.8563Z" fill="#A3A3A3"/>
<mask id="mask1_0_35" style="mask-type:luminance" maskUnits="userSpaceOnUse" x="55" y="0" width="23" height="25">
<path d="M77.3427 12.8563C77.9524 10.6161 68.8849 5.34856 63.1211 1.66202C61.8237 0.832548 60.0514 0.570236 58.6618 1.22956C56.932 2.05194 56.4145 4.22132 56.0954 6.10713C55.6559 8.72316 55.2092 11.3675 55.3723 14.0119C55.5354 16.6634 56.3577 19.3503 58.1585 21.2999C59.9238 23.207 62.4831 24.235 65.0565 24.6249C67.63 25.0148 70.2531 24.8234 72.8479 24.632L77.3427 12.8563Z" fill="white"/>
</mask>
<g mask="url(#mask1_0_35)">
<path d="M56.4711 8.58844C56.4711 8.58844 56.8398 3.03027 58.9596 1.69035C59.6969 1.22953 60.7107 1.48476 61.4763 1.7258C62.7453 2.13699 63.9364 2.79632 65.0778 3.47691C67.7293 5.06496 70.2035 6.94367 72.6068 8.87911C73.3654 9.49589 74.124 10.1198 74.8684 10.7507C75.6979 11.4597 76.6479 12.8918 76.3005 13.303C75.9531 13.7142 74.046 11.6582 72.9259 10.8216C71.8412 10.0063 70.7565 9.19814 69.6576 8.40411C67.1621 6.61756 64.617 4.7672 61.845 3.42019C61.2495 3.12952 59.9663 2.38512 59.2857 2.8105C57.3573 4.02989 56.4711 8.58844 56.4711 8.58844Z" fill="#C1C1C1"/>
</g>
<path d="M112.634 11.6937C115.272 7.98586 118.405 4.63252 121.921 1.75418C123.254 0.66949 124.956 -0.415205 126.579 0.159045C127.919 0.626953 128.642 2.05195 129.231 3.34224C130.23 5.56125 131.23 7.81571 131.592 10.2261C131.953 12.6295 131.599 15.2455 130.117 17.1739C128.586 19.166 126.048 20.1798 123.545 20.4067C121.042 20.6335 118.533 20.1656 116.066 19.7048L112.634 11.6937Z" fill="#A3A3A3"/>
<path d="M96.534 47.3964C95.4706 49.9982 93.9321 53.3303 91.2806 52.9617C90.6568 52.8766 89.962 52.9617 89.2176 53.1531C89.1963 53.1602 89.1821 53.1602 89.168 53.1673C81.0576 55.4146 80.7527 70.6429 80.7527 70.6429C69.523 70.1679 59.1368 61.781 59.1368 61.781C61.9443 45.78 71.1536 36.5636 71.8979 35.8334C74.0106 32.8487 76.4849 29.5947 79.7957 28.1342C81.4546 27.404 82.9363 27.2126 84.6945 27.0354C86.7646 26.8298 88.4307 26.1208 90.5575 26.6596C92.6773 27.1913 94.5844 28.5525 95.7683 30.3887C97.0728 32.4021 97.491 34.8622 97.6612 37.2584C97.9164 40.7961 97.7108 44.5039 96.534 47.3964Z" fill="#3D3D3D"/>
<path d="M137.681 60.2497C137.681 60.2497 131.095 67.7433 123.389 68.1616C123.389 68.1616 118.122 54.7624 113.492 48.7009C113.258 48.6016 113.017 48.5024 112.783 48.396C110.436 47.3751 108.04 46.1629 106.537 44.0927C104.595 41.4271 104.496 37.8823 104.474 34.5786C104.46 32.7424 104.467 30.8283 105.282 29.1835C106.275 27.1842 108.381 25.894 110.571 25.4899C112.769 25.0858 115.038 25.4899 117.15 26.213C122.382 27.9924 126.26 32.6928 128.586 37.3577C131.599 42.3345 137.795 53.4367 137.681 60.2497Z" fill="#3D3D3D"/>
<path d="M100.731 64.2765C104.396 64.6381 108.26 63.7306 111.089 61.3698C113.91 59.009 115.52 55.1098 114.718 51.5154C114.201 49.183 112.698 47.0845 110.656 45.8438C109.139 44.9222 107.381 44.4755 105.623 44.2487C103.524 43.9793 101.383 44.0076 99.2918 44.3408C98.0936 44.5322 96.9097 44.8158 95.8037 45.3192C93.0813 46.5527 91.0041 49.1262 90.3731 52.0542C89.7422 54.9751 90.5716 58.1795 92.5354 60.4269C94.5701 62.7452 97.6541 63.9717 100.731 64.2765Z" fill="#E2E2E2"/>
<path d="M74.28 34.2312C74.6274 34.2241 74.9393 34.0398 75.23 33.8555C76.9669 32.792 78.1579 31.8562 80.2281 30.6297C81.8657 29.6656 84.0635 28.7581 85.7933 27.9499C86.0485 27.8294 86.325 27.6876 86.4243 27.4253C86.5661 27.0495 86.2754 26.6596 85.9635 26.4044C84.0776 24.8234 81.1639 25.2275 79.0725 26.1137C76.6904 27.1204 74.6557 28.9708 73.5001 31.2961C73.2307 31.842 72.9968 32.4446 73.0818 33.0543C73.174 33.6569 73.6632 34.2454 74.28 34.2312Z" fill="#E2E2E2"/>
<path d="M116.959 26.4186C117.016 26.7588 117.214 27.0991 117.526 27.3685C119.291 28.8786 121.05 30.3887 122.815 31.8987C123.205 32.2319 123.602 32.5722 124.084 32.7495C124.495 32.8984 125.367 33.026 125.558 32.5581C126.062 31.3316 124.97 29.3961 124.417 28.5241C123.339 26.8156 121.61 25.4969 119.632 25.0361C119.029 24.8943 118.377 24.8305 117.803 25.0786C117.129 25.3693 116.874 25.8939 116.959 26.4186Z" fill="#E2E2E2"/>
<path d="M102.532 157.709C101.759 157.851 101.071 157.333 100.525 156.653C96.4205 151.577 92.7835 146.288 88.9552 140.361C89.1466 139.95 89.4656 139.638 89.8343 139.532C90.5929 139.319 91.4294 140.028 91.5358 140.964C91.6563 139.829 91.7768 138.681 91.9044 137.547C92.6843 138.107 93.4641 138.66 94.2369 139.213C94.3291 138.255 94.4283 137.291 94.5204 136.341C94.6906 137.305 95.6122 138.007 96.385 137.674C97.1152 137.355 97.491 136.299 97.4201 135.356C97.4059 135.143 97.4201 134.867 97.4343 134.576C99.4548 140.389 102.092 148.11 103.474 153.803C103.836 155.284 103.786 157.475 102.532 157.709Z" fill="#757575"/>
<path d="M148.89 87.6293C148.635 88.6715 147.968 89.4797 147.429 90.3517C144.409 95.2434 141.368 99.7027 138.178 104.056C138.206 103.297 138.234 102.539 138.256 101.773C137.625 102.049 137.001 102.333 136.377 102.609C136.675 101.964 136.972 101.333 137.27 100.702C136.37 101.106 135.462 101.511 134.562 101.915C134.711 101.142 134.86 100.369 135.009 99.5964C134.236 99.9863 133.47 100.362 132.697 100.752C133.733 99.4759 134.768 98.2069 135.803 96.9307C134.64 97.1222 133.477 97.3065 132.315 97.505C136.434 93.6058 140.546 89.6994 144.672 85.7931C145.693 84.8219 147.11 83.8081 148.202 84.6801C148.954 85.2756 149.152 86.5801 148.89 87.6293Z" fill="#757575"/>
<path d="M101.142 156.653C99.9936 157.986 99.2847 159.864 99.1996 161.793C99.1146 163.721 99.6604 165.678 100.696 167.152C101.348 168.081 102.227 168.84 103.226 168.974C104.226 169.109 105.325 168.499 105.701 167.372C106.02 166.415 105.786 165.323 105.531 164.338C105.155 162.884 104.744 161.438 104.297 160.013C104.46 159.68 104.9 159.737 105.126 160.02C105.346 160.304 105.417 160.701 105.523 161.07C105.63 161.438 105.821 161.821 106.133 161.906C106.431 161.991 106.743 161.75 106.892 161.431C107.041 161.105 107.062 160.722 107.055 160.346C107.012 158.737 106.41 157.156 105.424 156.071C104.439 154.994 103.085 154.427 101.759 154.547C102.135 155.206 100.483 156.66 101.142 156.653Z" fill="#757575"/>
<path d="M71.2527 16.3657C67.8852 13.8914 64.8651 10.9422 62.32 7.62431C61.8521 7.01461 61.1289 6.30566 60.4271 6.63887C59.9379 6.87282 59.7961 7.48962 59.7323 8.02133C59.4629 10.2403 59.548 12.509 59.9733 14.6996C60.3066 16.394 60.8879 18.1239 62.1215 19.3362C63.5252 20.7186 65.7158 21.2291 67.5875 20.6194C69.4591 20.0168 70.9266 18.3082 71.2527 16.3657Z" fill="#3D3D3D"/>
<mask id="mask2_0_35" style="mask-type:luminance" maskUnits="userSpaceOnUse" x="59" y="6" width="13" height="15">
<path d="M71.2527 16.3657C67.8852 13.8914 64.8651 10.9422 62.32 7.62431C61.8521 7.01461 61.1289 6.30566 60.4271 6.63887C59.9379 6.87282 59.7961 7.48962 59.7323 8.02133C59.4629 10.2403 59.548 12.509 59.9733 14.6996C60.3066 16.394 60.8879 18.1239 62.1215 19.3362C63.5252 20.7186 65.7158 21.2291 67.5875 20.6194C69.4591 20.0168 70.9266 18.3082 71.2527 16.3657Z" fill="white"/>
</mask>
<g mask="url(#mask2_0_35)">
<path d="M61.0154 5.9866C61.0154 5.9866 59.6259 13.4731 61.9513 17.0462C64.2837 20.6193 70.2956 18.5279 71.7773 16.1104C73.259 13.6929 72.6635 19.5134 72.6635 19.5134L65.652 22.3775L59.5692 20.2081L58.2931 7.22727L61.0154 5.9866Z" fill="#E1E1E1"/>
</g>
<path d="M118.065 14.3806C118.1 14.1041 118.249 13.8489 118.448 13.6503C120.227 11.8992 121.205 10.6586 122.616 8.85785C123.46 7.78733 124.353 6.1213 125.19 5.04369C125.339 4.85936 125.502 4.66086 125.736 4.61123C126.253 4.50489 126.565 5.15004 126.686 5.66049C127.083 7.33361 127.48 9.02091 127.494 10.7437C127.508 12.4593 127.104 14.2388 126.033 15.5858C124.97 16.9328 123.169 17.7694 121.489 17.3865C120.348 17.1242 119.39 16.3585 118.596 15.5078C118.306 15.1959 118.008 14.8059 118.065 14.3806Z" fill="#3D3D3D"/>
<mask id="mask3_0_35" style="mask-type:luminance" maskUnits="userSpaceOnUse" x="118" y="4" width="10" height="14">
<path d="M118.065 14.3806C118.1 14.1041 118.249 13.8489 118.448 13.6503C120.227 11.8992 121.205 10.6586 122.616 8.85785C123.46 7.78733 124.353 6.1213 125.19 5.04369C125.339 4.85936 125.502 4.66086 125.736 4.61123C126.253 4.50489 126.565 5.15004 126.686 5.66049C127.083 7.33361 127.48 9.02091 127.494 10.7437C127.508 12.4593 127.104 14.2388 126.033 15.5858C124.97 16.9328 123.169 17.7694 121.489 17.3865C120.348 17.1242 119.39 16.3585 118.596 15.5078C118.306 15.1959 118.008 14.8059 118.065 14.3806Z" fill="white"/>
</mask>
<g mask="url(#mask3_0_35)">
<path d="M125.693 3.68961C125.693 3.68961 128.826 13.0477 123.715 15.6567C118.603 18.2656 116.533 11.4951 116.533 11.4951C116.533 11.4951 117.292 17.3511 117.512 17.4787C117.731 17.6134 123.169 19.0242 123.169 19.0242L128.174 14.891L129.153 11.4881L128.72 7.22018L125.693 3.68961Z" fill="#E1E1E1"/>
</g>
<path d="M90.5078 40.6118C90.7985 38.8677 90.359 37.0032 89.3168 35.6066C88.2747 34.2099 86.6583 33.3096 84.978 33.1819C83.8225 33.0969 82.6527 33.3734 81.6389 33.9547C79.2214 35.3584 77.9665 38.655 78.8031 41.4199C79.6396 44.1849 82.4683 46.1203 85.2191 45.8084C87.7926 45.5106 90.0541 43.2916 90.5078 40.6118Z" fill="white"/>
<path d="M118.83 40.1013C119.093 38.4778 118.696 36.7338 117.781 35.4364C116.867 34.139 115.442 33.2954 113.96 33.1819C112.946 33.104 111.911 33.3592 111.018 33.9051C108.884 35.2095 107.785 38.2864 108.515 40.8599C109.252 43.4405 111.748 45.2412 114.165 44.9505C116.434 44.674 118.433 42.5968 118.83 40.1013Z" fill="white"/>
<path d="M96.6048 44.3692C96.5623 44.6953 96.7466 45.0072 96.9451 45.2696C97.966 46.6307 99.6108 47.5169 101.312 47.6091C103.014 47.7084 104.744 47.0207 105.913 45.78C106.573 45.0781 107.062 43.9935 106.537 43.1853C106.055 42.4338 105.006 42.3558 104.113 42.3983C102 42.4976 99.8943 42.8308 97.8455 43.3838C97.3138 43.5397 96.6757 43.8091 96.6048 44.3692Z" fill="#FF5F7A"/>
<path d="M86.077 41.8879C85.524 42.4692 84.6591 42.7174 83.8651 42.5827C82.3267 42.3203 81.2562 40.6968 81.3271 39.1371C81.3483 38.7047 81.561 38.1659 81.9935 38.1588C82.3338 38.1588 82.6102 38.5062 82.9505 38.4991C83.305 38.492 83.5319 38.1163 83.5886 37.7689C83.6453 37.4215 83.6099 37.0528 83.7587 36.7338C84.0778 36.039 85.1341 35.9965 85.7297 36.4786C86.3252 36.9607 86.552 37.7547 86.6796 38.5062C86.8994 39.676 86.8994 41.023 86.077 41.8879Z" fill="#3D3D3D"/>
<path d="M113.662 41.3916C113.145 41.9375 112.336 42.1643 111.592 42.0367C110.153 41.7957 109.146 40.2714 109.217 38.811C109.238 38.3998 109.437 37.9035 109.841 37.8964C110.16 37.8964 110.415 38.2226 110.741 38.2155C111.067 38.2084 111.28 37.8539 111.337 37.5278C111.393 37.2017 111.358 36.8543 111.5 36.5565C111.805 35.9043 112.79 35.8618 113.35 36.3155C113.903 36.7692 114.123 37.5136 114.243 38.2155C114.435 39.3214 114.435 40.5834 113.662 41.3916Z" fill="#3D3D3D"/>
<path d="M91.5925 98.3983C90.8906 95.5838 90.3306 92.7267 89.9194 89.8271C89.8626 89.4443 89.26 89.2457 89.3309 89.7562C89.7421 92.6558 90.3022 95.5058 91.0041 98.3274C91.0962 98.689 91.713 98.8875 91.5925 98.3983Z" fill="#898989"/>
<path d="M124.339 104.538C123.439 105.07 122.602 105.722 121.822 106.487C121.574 106.736 122.063 107.296 122.326 107.04C123.07 106.31 123.871 105.693 124.736 105.19C125.055 105.006 124.63 104.375 124.339 104.538Z" fill="#898989"/>
<path d="M85.9847 70.7138C84.4675 70.6429 82.9646 70.4657 81.4687 70.1892C81.0362 70.1112 81.2773 70.735 81.5963 70.7989C83.0922 71.0753 84.5951 71.2526 86.1123 71.3235C86.5589 71.3376 86.325 70.728 85.9847 70.7138Z" fill="#898989"/>
<path d="M111.656 71.0824C110.5 71.1533 109.338 71.1817 108.175 71.1604C107.735 71.1533 107.969 71.763 108.303 71.7701C109.515 71.7914 110.727 71.763 111.932 71.685C112.337 71.6567 111.982 71.0612 111.656 71.0824Z" fill="#898989"/>
<path d="M82.1423 128.401C81.5185 127.501 81.0718 126.565 80.7315 125.473C80.6677 125.26 80.4337 125.112 80.2636 125.204C80.1856 125.246 80.1076 125.282 80.0296 125.324C80.1218 124.785 80.2069 124.247 80.1785 123.715C80.1714 123.516 80.058 123.318 79.8949 123.261C79.3703 123.077 79.2498 123.353 78.9804 123.616L78.7535 112.145C78.7464 111.769 78.1439 111.429 78.1509 111.897L78.392 124.119C78.399 124.346 78.6118 124.679 78.8245 124.594C78.8315 124.587 79.186 124.495 79.264 124.396C79.6327 123.609 79.7106 123.651 79.4979 124.509C79.4341 124.956 79.3632 125.409 79.2994 125.856C79.2569 126.147 79.5901 126.416 79.7957 126.31C79.98 126.218 80.1572 126.118 80.3416 126.026C80.6819 127.004 81.1073 127.862 81.6886 128.699C81.9296 129.039 82.433 128.819 82.1423 128.401Z" fill="#898989"/>
<path d="M75.7262 199.488C74.9251 200.99 73.2733 204.854 72.6919 207.903C72.1106 210.951 71.508 212.724 74.3509 213.397C77.1938 214.071 89.65 216.651 91.9399 216.786C94.2299 216.921 101.624 216.857 101.894 214.907C102.163 212.958 101.348 211.667 100.072 211.256C98.7884 210.845 95.903 209.328 94.5063 208.449C93.1168 207.57 89.5862 205.62 89.3735 205.01C89.1608 204.401 87.1049 198.325 86.0698 197.573C85.5948 197.226 83.3687 198.162 81.1426 198.601C78.5266 199.126 75.8822 199.204 75.7262 199.488Z" fill="#3D3D3D"/>
<path d="M100.072 211.263C99.1712 210.973 97.4697 210.136 96.0518 209.356C95.8178 209.441 95.5555 209.448 95.2578 209.299C94.641 209.002 94.0242 208.399 93.294 208.463C92.819 208.505 92.429 208.796 91.9469 208.775C91.3585 208.746 90.7275 208.264 90.2667 207.945C89.7208 207.57 89.2175 207.144 88.7283 206.705C88.1753 206.208 87.594 205.549 86.9417 205.202C86.1194 204.762 84.7795 204.847 83.9642 205.138C83.8508 205.18 83.7657 205.01 83.8507 204.932C84.3895 204.436 85.4955 204.053 85.616 203.295C85.7153 202.664 85.5735 202.04 85.3608 201.444C84.9425 200.26 84.5739 198.984 83.95 197.878C83.1134 198.112 82.128 198.403 81.1354 198.601C78.5194 199.112 75.868 199.197 75.7191 199.48C74.918 200.983 73.2661 204.847 72.6848 207.896C72.1034 210.944 71.5292 212.454 74.365 213.128C77.2079 213.801 89.6003 216.481 91.8903 216.616C94.1802 216.75 101.617 216.85 101.879 214.907C102.163 212.972 101.355 211.674 100.072 211.263Z" fill="#3D3D3D"/>
<path d="M95.2579 209.306C95.0735 209.214 94.8821 209.094 94.6978 208.98C94.5843 209.094 94.4709 209.214 94.3646 209.335C94.1235 209.611 93.7478 210.037 93.7832 210.434C93.847 211.036 94.7048 211.235 95.1798 211.341C96.1015 211.54 97.0302 211.54 97.966 211.639C98.4907 211.696 99.072 211.788 99.6037 211.653C99.8519 211.589 100.057 211.476 100.228 211.327C100.178 211.306 100.128 211.284 100.072 211.27C99.1712 210.98 97.4698 210.143 96.0519 209.363C95.8179 209.448 95.5556 209.448 95.2579 209.306Z" fill="#F9F9F9"/>
<path d="M74.599 202.713C75.1094 203.33 76.0523 203.848 76.7045 204.315C77.9806 205.237 79.4482 205.684 81.0433 205.691C82.4187 205.698 83.3758 205.485 84.6022 204.946C85.0702 204.493 85.5168 203.961 85.6231 203.309C85.7224 202.678 85.5806 202.054 85.3679 201.458C84.9496 200.274 84.581 198.998 83.9571 197.892C83.1206 198.126 82.1351 198.417 81.1426 198.616C78.5265 199.126 75.8751 199.211 75.7262 199.495C75.3859 200.133 74.8896 201.203 74.3863 202.451C74.4572 202.536 74.5281 202.628 74.599 202.713Z" fill="#584676"/>
<path d="M100.483 211.433C100.284 211.632 100.05 211.788 99.7596 211.859C99.0932 212.029 98.4268 211.908 97.7533 211.852C96.8033 211.781 95.825 211.774 94.9033 211.511C94.0738 211.277 93.1593 210.753 93.7264 209.789C93.932 209.434 94.2085 209.136 94.4992 208.846C94.1235 208.619 93.7335 208.427 93.3011 208.463C92.8686 208.498 92.5141 208.739 92.0959 208.768C89.9974 210.696 88.0052 212.709 86.169 214.921C85.9918 215.134 85.8146 215.34 85.6373 215.545C88.4944 216.112 90.997 216.566 91.9044 216.623C94.1943 216.758 101.631 216.857 101.894 214.914C102.128 213.184 101.518 211.972 100.483 211.433Z" fill="#584676"/>
<path d="M84.4675 213.397C84.3328 212.078 83.8649 211.001 82.766 210.207C81.8728 209.562 80.8661 209.122 79.8452 208.704C78.2784 208.066 76.5344 207.449 75.1874 206.386C74.4288 205.783 73.9467 205.046 73.7269 204.216C73.3016 205.443 72.9187 206.733 72.6918 207.903C72.1105 210.951 71.5363 212.461 74.3721 213.135C75.953 213.511 80.4761 214.503 84.5739 215.333C84.5597 214.687 84.5313 214.042 84.4675 213.397Z" fill="#584676"/>
<path d="M101.801 213.114C100.008 214.297 94.1021 214.092 92.0887 213.943C89.7421 213.766 77.0235 210.845 74.1097 210.115C73.3015 209.916 72.7698 209.654 72.4224 209.314C72.0183 211.44 72.0183 212.582 74.3791 213.142C77.222 213.815 89.6145 216.495 91.9044 216.63C94.1943 216.765 101.631 216.864 101.894 214.921C101.986 214.234 101.943 213.631 101.801 213.114Z" fill="#E2E2E2"/>
<path d="M91.5996 215.928C91.6705 215.744 91.7414 215.566 91.8123 215.382C89.4798 215.162 76.8322 211.993 73.9326 211.214C73.1315 210.994 72.5998 210.724 72.2524 210.384C72.2098 210.611 72.2169 211.1 72.2169 211.1C72.5572 211.391 72.9826 211.561 73.6915 211.759C76.5911 212.546 89.2317 215.715 91.5713 215.928C91.5854 215.928 91.5925 215.928 91.5996 215.928Z" fill="#3D3D3D"/>
<path d="M90.8764 214.616C89.9051 214.787 89.4443 215.496 89.0189 216.268C90.3376 216.502 91.3727 216.665 91.8902 216.694C94.1801 216.828 101.617 216.928 101.879 214.985C101.95 214.446 101.943 213.964 101.865 213.532C98.9443 215.347 91.5145 214.503 90.8764 214.616Z" fill="#3D3D3D"/>
<path d="M84.4746 199.934C84.5526 200.352 84.4108 200.728 84.1485 200.785C83.8862 200.835 83.6097 200.537 83.5246 200.118C83.4395 199.7 83.5884 199.324 83.8507 199.268C84.113 199.218 84.3895 199.516 84.4746 199.934Z" fill="#474747"/>
<path d="M85.0205 202.167C85.0985 202.586 84.9567 202.961 84.6944 203.018C84.432 203.068 84.1556 202.77 84.0705 202.352C83.9925 201.933 84.1343 201.558 84.3966 201.501C84.6589 201.451 84.9354 201.749 85.0205 202.167Z" fill="#474747"/>
<path d="M86.0414 205.216C86.2045 205.506 86.1832 205.826 85.9989 205.925C85.8145 206.024 85.538 205.875 85.375 205.584C85.2119 205.294 85.2332 204.975 85.4175 204.876C85.6019 204.769 85.8783 204.925 86.0414 205.216Z" fill="#474747"/>
<path d="M87.8633 206.237C88.1044 206.464 88.1824 206.776 88.0335 206.924C87.8917 207.073 87.5797 207.009 87.3387 206.783C87.0976 206.556 87.0197 206.244 87.1685 206.095C87.3103 205.946 87.6223 206.01 87.8633 206.237Z" fill="#474747"/>
<path d="M89.6145 207.456C89.891 207.648 90.0115 207.938 89.891 208.108C89.7705 208.278 89.4515 208.264 89.1821 208.08C88.9056 207.889 88.785 207.598 88.9056 207.428C89.0261 207.258 89.3451 207.265 89.6145 207.456Z" fill="#474747"/>
<path d="M91.0042 208.463C91.2806 208.654 91.4011 208.945 91.2806 209.115C91.1601 209.285 90.8411 209.271 90.5717 209.087C90.3023 208.902 90.1747 208.605 90.2952 208.434C90.4157 208.257 90.7347 208.271 91.0042 208.463Z" fill="#474747"/>
<path d="M76.5131 199.97C76.6691 199.686 79.3134 199.601 81.9294 199.09C83.7514 198.736 85.5664 198.041 86.4313 197.992C86.3037 197.807 86.1832 197.666 86.0697 197.58C85.5947 197.233 83.3686 198.169 81.1425 198.608C78.5265 199.119 75.875 199.204 75.7261 199.488C75.478 199.948 75.159 200.629 74.8116 201.437C75.6127 200.913 76.265 200.438 76.5131 199.97Z" fill="#3D3D3D"/>
<path d="M87.4878 199.459C87.5161 199.573 87.4665 199.686 87.3814 199.707L84.1132 200.544C84.0281 200.565 83.9359 200.487 83.9076 200.374L83.7871 199.849C83.7587 199.736 83.8083 199.622 83.8934 199.601L87.1616 198.764C87.2467 198.743 87.3389 198.821 87.3673 198.935L87.4878 199.459Z" fill="#F9F9F9"/>
<path d="M88.3456 201.281C88.381 201.395 88.3456 201.508 88.2605 201.536L84.6378 202.827C84.5527 202.855 84.4534 202.784 84.418 202.671L84.2478 202.16C84.2124 202.047 84.2478 201.933 84.3329 201.905L87.9556 200.615C88.0407 200.586 88.14 200.657 88.1755 200.771L88.3456 201.281Z" fill="#F9F9F9"/>
<path d="M89.2671 203.543C89.3239 203.649 89.3097 203.762 89.2317 203.812L85.9422 205.811C85.8642 205.854 85.7508 205.804 85.694 205.705L85.4246 205.237C85.3679 205.131 85.3821 205.017 85.4601 204.968L88.7496 202.968C88.8276 202.926 88.941 202.976 88.9977 203.075L89.2671 203.543Z" fill="#F9F9F9"/>
<path d="M89.9406 205.109C90.0115 205.202 90.0115 205.329 89.9406 205.379L87.9343 206.903C87.8634 206.96 87.75 206.924 87.6791 206.825L87.3601 206.393C87.2892 206.301 87.2892 206.173 87.3601 206.123L89.3664 204.599C89.4373 204.542 89.5507 204.578 89.6216 204.677L89.9406 205.109Z" fill="#F9F9F9"/>
<path d="M91.0324 205.996C91.1246 206.067 91.16 206.187 91.1033 206.258L89.7492 208.052C89.6925 208.123 89.572 208.123 89.4798 208.045L89.0545 207.711C88.9623 207.64 88.9268 207.52 88.9835 207.449L90.3377 205.655C90.3944 205.584 90.5149 205.584 90.6071 205.662L91.0324 205.996Z" fill="#F9F9F9"/>
<path d="M92.3085 206.889C92.4078 206.953 92.4503 207.066 92.4007 207.144L91.2096 209.051C91.16 209.129 91.0395 209.136 90.9402 209.073L90.4865 208.782C90.3872 208.718 90.3447 208.605 90.3943 208.527L91.5854 206.62C91.635 206.542 91.7555 206.534 91.8548 206.598L92.3085 206.889Z" fill="#F9F9F9"/>
<path d="M92.6843 209.377C92.9892 209.505 93.1735 209.767 93.0884 209.959C93.0033 210.15 92.6914 210.2 92.3865 210.072C92.0817 209.945 91.8974 209.682 91.9824 209.491C92.0675 209.299 92.3724 209.25 92.6843 209.377Z" fill="#474747"/>
<path d="M93.8044 207.69C93.9107 207.747 93.9604 207.853 93.9178 207.931L92.904 209.937C92.8615 210.015 92.741 210.037 92.6346 209.98L92.1597 209.732C92.0533 209.675 92.0037 209.569 92.0462 209.491L93.06 207.484C93.1025 207.406 93.223 207.385 93.3294 207.442L93.8044 207.69Z" fill="#F9F9F9"/>
<path d="M106.183 198.091C105.382 199.594 103.73 203.458 103.148 206.506C102.567 209.555 101.965 211.327 104.807 212C107.65 212.674 120.107 215.255 122.396 215.389C124.686 215.524 132.081 215.46 132.35 213.511C132.62 211.561 131.804 210.271 130.528 209.859C129.252 209.448 126.359 207.931 124.963 207.052C123.573 206.173 120.043 204.223 119.83 203.614C119.617 203.004 117.561 196.928 116.526 196.177C116.051 195.829 113.825 196.765 111.599 197.205C108.983 197.722 106.339 197.807 106.183 198.091Z" fill="#3D3D3D"/>
<path d="M130.528 209.867C129.628 209.576 127.926 208.739 126.508 207.959C126.274 208.045 126.012 208.052 125.714 207.903C125.097 207.605 124.481 207.002 123.751 207.066C123.276 207.109 122.886 207.399 122.403 207.378C121.815 207.35 121.184 206.868 120.723 206.549C120.177 206.173 119.674 205.748 119.185 205.308C118.632 204.812 118.051 204.152 117.398 203.805C116.576 203.366 115.236 203.451 114.421 203.741C114.307 203.784 114.222 203.614 114.307 203.536C114.846 203.039 115.952 202.657 116.073 201.898C116.172 201.267 116.03 200.643 115.817 200.048C115.399 198.864 115.03 197.588 114.407 196.482C113.57 196.716 112.585 197.006 111.592 197.205C108.976 197.715 106.324 197.8 106.176 198.084C105.374 199.587 103.723 203.451 103.141 206.499C102.56 209.548 101.986 211.058 104.822 211.731C107.664 212.405 120.057 215.084 122.347 215.219C124.637 215.354 132.074 215.453 132.336 213.511C132.598 211.568 131.811 210.278 130.528 209.867Z" fill="#3D3D3D"/>
<path d="M125.721 207.903C125.537 207.811 125.346 207.69 125.161 207.577C125.048 207.69 124.934 207.811 124.828 207.931C124.587 208.208 124.211 208.633 124.247 209.03C124.311 209.633 125.168 209.831 125.643 209.937C126.565 210.136 127.494 210.136 128.43 210.235C128.954 210.292 129.536 210.384 130.06 210.249C130.308 210.186 130.514 210.072 130.684 209.923C130.634 209.902 130.585 209.881 130.528 209.867C129.628 209.576 127.926 208.739 126.508 207.959C126.274 208.045 126.019 208.052 125.721 207.903Z" fill="#F9F9F9"/>
<path d="M105.063 201.31C105.573 201.926 106.516 202.444 107.168 202.912C108.444 203.833 109.912 204.28 111.507 204.287C112.882 204.294 113.839 204.082 115.066 203.543C115.534 203.089 115.98 202.557 116.087 201.905C116.186 201.274 116.044 200.65 115.831 200.055C115.413 198.871 115.045 197.595 114.421 196.489C113.584 196.723 112.599 197.013 111.606 197.212C108.99 197.722 106.339 197.807 106.19 198.091C105.849 198.729 105.353 199.799 104.85 201.047C104.921 201.139 104.985 201.224 105.063 201.31Z" fill="#584676"/>
<path d="M130.939 210.037C130.741 210.235 130.507 210.391 130.216 210.462C129.55 210.632 128.883 210.512 128.21 210.455C127.26 210.384 126.281 210.377 125.36 210.115C124.53 209.881 123.616 209.356 124.183 208.392C124.389 208.037 124.665 207.74 124.956 207.449C124.58 207.222 124.19 207.031 123.758 207.066C123.325 207.102 122.971 207.343 122.552 207.371C120.454 209.299 118.462 211.313 116.626 213.525C116.448 213.737 116.271 213.943 116.094 214.149C118.951 214.716 121.454 215.17 122.361 215.226C124.651 215.361 132.088 215.46 132.35 213.518C132.591 211.788 131.974 210.576 130.939 210.037Z" fill="#584676"/>
<path d="M114.924 212.001C114.789 210.682 114.321 209.604 113.223 208.81C112.329 208.165 111.323 207.726 110.302 207.307C108.735 206.669 106.991 206.052 105.644 204.989C104.885 204.386 104.403 203.649 104.183 202.82C103.758 204.046 103.375 205.336 103.148 206.506C102.567 209.555 101.993 211.065 104.829 211.738C106.41 212.114 110.933 213.106 115.03 213.936C115.016 213.291 114.995 212.639 114.924 212.001Z" fill="#584676"/>
<path d="M132.258 211.717C130.464 212.901 124.559 212.695 122.545 212.546C120.199 212.369 107.48 209.448 104.566 208.718C103.758 208.52 103.226 208.257 102.879 207.917C102.475 210.044 102.475 211.185 104.836 211.745C107.679 212.419 120.071 215.099 122.361 215.233C124.651 215.368 132.088 215.467 132.35 213.525C132.449 212.83 132.407 212.227 132.258 211.717Z" fill="#E2E2E2"/>
<path d="M122.063 214.531C122.134 214.347 122.205 214.17 122.276 213.986C119.944 213.766 107.296 210.597 104.396 209.817C103.595 209.597 103.063 209.328 102.716 208.987C102.673 209.214 102.681 209.703 102.681 209.703C103.021 209.994 103.446 210.164 104.155 210.363C107.055 211.15 119.695 214.319 122.035 214.531C122.042 214.531 122.056 214.531 122.063 214.531Z" fill="#3D3D3D"/>
<path d="M121.333 213.213C120.362 213.383 119.901 214.092 119.476 214.865C120.794 215.099 121.829 215.262 122.347 215.29C124.637 215.425 132.074 215.524 132.336 213.581C132.407 213.043 132.4 212.561 132.322 212.128C129.408 213.95 121.978 213.099 121.333 213.213Z" fill="#3D3D3D"/>
<path d="M114.931 198.538C115.009 198.956 114.867 199.332 114.605 199.388C114.343 199.438 114.066 199.14 113.981 198.722C113.903 198.304 114.045 197.928 114.307 197.871C114.57 197.814 114.853 198.119 114.931 198.538Z" fill="#474747"/>
<path d="M115.477 200.771C115.555 201.189 115.413 201.565 115.151 201.621C114.889 201.671 114.612 201.373 114.527 200.955C114.442 200.537 114.591 200.161 114.853 200.104C115.115 200.055 115.399 200.352 115.477 200.771Z" fill="#474747"/>
<path d="M116.498 203.819C116.661 204.11 116.64 204.429 116.455 204.528C116.271 204.627 115.995 204.479 115.832 204.188C115.668 203.897 115.69 203.578 115.874 203.479C116.058 203.373 116.335 203.529 116.498 203.819Z" fill="#474747"/>
<path d="M118.32 204.84C118.561 205.067 118.639 205.379 118.49 205.528C118.348 205.677 118.036 205.613 117.795 205.386C117.554 205.159 117.476 204.847 117.625 204.698C117.767 204.542 118.079 204.606 118.32 204.84Z" fill="#474747"/>
<path d="M120.078 206.06C120.355 206.251 120.475 206.542 120.355 206.712C120.234 206.882 119.915 206.868 119.646 206.683C119.369 206.492 119.249 206.201 119.369 206.031C119.483 205.854 119.802 205.868 120.078 206.06Z" fill="#474747"/>
<path d="M121.468 207.059C121.744 207.251 121.865 207.541 121.744 207.711C121.624 207.881 121.305 207.867 121.035 207.683C120.759 207.492 120.638 207.201 120.759 207.031C120.872 206.861 121.191 206.875 121.468 207.059Z" fill="#474747"/>
<path d="M106.97 198.573C107.126 198.289 109.77 198.204 112.386 197.694C114.208 197.339 116.023 196.645 116.888 196.595C116.76 196.411 116.64 196.269 116.526 196.184C116.051 195.836 113.825 196.772 111.599 197.212C108.983 197.722 106.332 197.807 106.183 198.091C105.935 198.552 105.616 199.232 105.268 200.041C106.069 199.516 106.721 199.034 106.97 198.573Z" fill="#3D3D3D"/>
<path d="M117.944 198.055C117.973 198.169 117.923 198.282 117.838 198.304L114.57 199.14C114.485 199.161 114.392 199.083 114.364 198.97L114.243 198.445C114.215 198.332 114.265 198.219 114.35 198.197L117.618 197.361C117.703 197.339 117.795 197.417 117.824 197.531L117.944 198.055Z" fill="#F9F9F9"/>
<path d="M118.809 199.877C118.845 199.991 118.809 200.104 118.724 200.133L115.101 201.423C115.016 201.451 114.917 201.38 114.882 201.267L114.712 200.757C114.676 200.643 114.712 200.53 114.797 200.501L118.419 199.211C118.504 199.183 118.604 199.254 118.639 199.367L118.809 199.877Z" fill="#F9F9F9"/>
<path d="M119.731 202.139C119.787 202.245 119.773 202.359 119.695 202.408L116.406 204.408C116.328 204.45 116.214 204.401 116.158 204.301L115.888 203.833C115.832 203.727 115.846 203.614 115.924 203.564L119.213 201.565C119.291 201.522 119.405 201.572 119.461 201.671L119.731 202.139Z" fill="#F9F9F9"/>
<path d="M120.404 203.706C120.475 203.798 120.475 203.926 120.404 203.975L118.398 205.499C118.327 205.556 118.214 205.521 118.143 205.421L117.824 204.989C117.753 204.897 117.753 204.769 117.824 204.72L119.83 203.195C119.901 203.139 120.014 203.174 120.085 203.273L120.404 203.706Z" fill="#F9F9F9"/>
<path d="M121.496 204.592C121.588 204.663 121.624 204.783 121.567 204.854L120.213 206.648C120.156 206.719 120.036 206.719 119.944 206.641L119.518 206.308C119.426 206.237 119.391 206.116 119.447 206.045L120.801 204.252C120.858 204.181 120.979 204.181 121.071 204.259L121.496 204.592Z" fill="#F9F9F9"/>
<path d="M122.765 205.485C122.864 205.549 122.907 205.662 122.857 205.74L121.666 207.648C121.617 207.726 121.496 207.733 121.397 207.669L120.943 207.378C120.844 207.314 120.801 207.201 120.851 207.123L122.042 205.216C122.092 205.138 122.212 205.131 122.311 205.195L122.765 205.485Z" fill="#F9F9F9"/>
<path d="M123.141 207.981C123.446 208.108 123.63 208.371 123.545 208.562C123.46 208.754 123.148 208.803 122.843 208.676C122.538 208.548 122.354 208.286 122.439 208.094C122.524 207.903 122.836 207.853 123.141 207.981Z" fill="#474747"/>
<path d="M124.268 206.286C124.374 206.343 124.424 206.449 124.381 206.527L123.368 208.534C123.325 208.612 123.205 208.633 123.098 208.576L122.623 208.328C122.517 208.271 122.467 208.165 122.51 208.087L123.524 206.081C123.566 206.003 123.687 205.982 123.793 206.038L124.268 206.286Z" fill="#F9F9F9"/>
<path d="M79.6043 10.0844C79.6043 10.0844 82.2274 8.61683 86.1692 7.05714C91.3374 5.00828 98.2993 2.57657 99.7527 0.782928C99.7527 0.782928 98.5262 3.89522 94.3789 5.46909C94.3789 5.46909 103.588 3.85977 113.485 10.0844C113.485 10.0844 101.603 12.5657 101.518 31.8562C101.518 31.8562 96.6971 11.4597 79.6043 10.0844Z" fill="#3D3D3D"/>
<path d="M118.816 122.942L111.443 71.7701C111.443 71.7701 125.558 84.2689 122.921 100.922L118.816 122.942Z" fill="#FFAA00"/>
<mask id="mask4_0_35" style="mask-type:luminance" maskUnits="userSpaceOnUse" x="111" y="71" width="13" height="52">
<path d="M118.816 122.942L111.443 71.7701C111.443 71.7701 125.558 84.2689 122.921 100.922L118.816 122.942Z" fill="white"/>
</mask>
<g mask="url(#mask4_0_35)">
<path d="M144.176 98.377C123.538 123.821 123.51 112.74 122.368 102.744C121.673 105.197 121.156 107.735 120.915 110.266L124.516 124.403L144.176 98.377Z" fill="#FC8815"/>
</g>
<mask id="mask5_0_35" style="mask-type:luminance" maskUnits="userSpaceOnUse" x="111" y="71" width="13" height="52">
<path d="M118.816 122.942L111.443 71.7701C111.443 71.7701 125.558 84.2689 122.921 100.922L118.816 122.942Z" fill="white"/>
</mask>
<g mask="url(#mask5_0_35)">
<path d="M121.758 98.6889C119.61 88.4871 112.677 77.938 112.677 77.938L120.915 110.266C121.156 107.728 121.666 105.197 122.368 102.744C122.205 101.34 122.028 99.9509 121.758 98.6889Z" fill="#FC8815"/>
</g>
<mask id="mask6_0_35" style="mask-type:luminance" maskUnits="userSpaceOnUse" x="111" y="71" width="13" height="52">
<path d="M118.816 122.942L111.443 71.7701C111.443 71.7701 125.558 84.2689 122.921 100.922L118.816 122.942Z" fill="white"/>
</mask>
<g mask="url(#mask6_0_35)">
<path d="M122.219 112.861L121.766 111.117C121.843 111.563 121.985 112.187 122.219 112.861Z" fill="#E87610"/>
</g>
<mask id="mask7_0_35" style="mask-type:luminance" maskUnits="userSpaceOnUse" x="111" y="71" width="13" height="52">
<path d="M118.816 122.942L111.443 71.7701C111.443 71.7701 125.558 84.2689 122.921 100.922L118.816 122.942Z" fill="white"/>
</mask>
<g mask="url(#mask7_0_35)">
<path d="M130.33 116.328C125.317 118.866 123.113 115.463 122.219 112.861L124.857 122.942C124.849 122.942 136.632 113.137 130.33 116.328Z" fill="#E87610"/>
</g>
<mask id="mask8_0_35" style="mask-type:luminance" maskUnits="userSpaceOnUse" x="111" y="71" width="13" height="52">
<path d="M118.816 122.942L111.443 71.7701C111.443 71.7701 125.558 84.2689 122.921 100.922L118.816 122.942Z" fill="white"/>
</mask>
<g mask="url(#mask8_0_35)">
<path d="M120.922 98.377C117.966 87.0338 114.513 83.1416 114.513 83.1416L120.95 109.975C121.163 107.891 121.56 105.814 122.092 103.779C121.801 102.113 121.425 100.312 120.922 98.377Z" fill="#E87610"/>
</g>
<mask id="mask9_0_35" style="mask-type:luminance" maskUnits="userSpaceOnUse" x="111" y="71" width="13" height="52">
<path d="M118.816 122.942L111.443 71.7701C111.443 71.7701 125.558 84.2689 122.921 100.922L118.816 122.942Z" fill="white"/>
</mask>
<g mask="url(#mask9_0_35)">
<path d="M122.085 103.786C121.553 105.821 121.163 107.898 120.943 109.982L122.567 116.746C122.574 116.746 123.467 111.904 122.085 103.786Z" fill="#E87610"/>
</g>
<mask id="mask10_0_35" style="mask-type:luminance" maskUnits="userSpaceOnUse" x="111" y="71" width="13" height="52">
<path d="M118.816 122.942L111.443 71.7701C111.443 71.7701 125.558 84.2689 122.921 100.922L118.816 122.942Z" fill="white"/>
</mask>
<g mask="url(#mask10_0_35)">
</g>
<mask id="mask11_0_35" style="mask-type:luminance" maskUnits="userSpaceOnUse" x="111" y="71" width="13" height="52">
<path d="M118.816 122.942L111.443 71.7701C111.443 71.7701 125.558 84.2689 122.921 100.922L118.816 122.942Z" fill="white"/>
</mask>
<g mask="url(#mask11_0_35)">
<path d="M122.701 100.213C124.382 85.2189 112.819 73.8473 112.819 73.8473C123.042 86.0271 122.701 100.213 122.701 100.213Z" fill="#FFC776"/>
</g>
<path d="M96.612 85.6302C93.1736 76.4351 80.0297 78.491 80.0297 78.491C64.6383 85.5025 57.8608 113.357 56.4216 120.085C56.2656 120.801 56.8541 121.46 57.5843 121.397C63.1354 120.893 83.3334 119.972 98.2355 131.201C98.2355 131.201 112.67 110.323 101.468 83.2977L96.612 85.6302Z" fill="#FFAA00"/>
<mask id="mask12_0_35" style="mask-type:luminance" maskUnits="userSpaceOnUse" x="56" y="78" width="50" height="54">
<path d="M96.612 85.6302C93.1736 76.4351 80.0297 78.491 80.0297 78.491C64.6383 85.5025 57.8608 113.357 56.4216 120.085C56.2656 120.801 56.8541 121.46 57.5843 121.397C63.1354 120.893 83.3334 119.972 98.2355 131.201C98.2355 131.201 112.67 110.323 101.468 83.2977L96.612 85.6302Z" fill="white"/>
</mask>
<g mask="url(#mask12_0_35)">
<path d="M56.4003 121.872C56.4003 121.872 65.808 120.326 68.658 115.47C73.1315 107.856 75.5561 97.1293 75.5561 97.1293L74.8046 118.688L74.6557 121.928L70.4091 122.687L56.4003 121.872Z" fill="#FC8815"/>
</g>
<mask id="mask13_0_35" style="mask-type:luminance" maskUnits="userSpaceOnUse" x="56" y="78" width="50" height="54">
<path d="M96.612 85.6302C93.1736 76.4351 80.0297 78.491 80.0297 78.491C64.6383 85.5025 57.8608 113.357 56.4216 120.085C56.2656 120.801 56.8541 121.46 57.5843 121.397C63.1354 120.893 83.3334 119.972 98.2355 131.201C98.2355 131.201 112.67 110.323 101.468 83.2977L96.612 85.6302Z" fill="white"/>
</mask>
<g mask="url(#mask13_0_35)">
<path d="M75.3292 99.8233C75.3292 99.8233 72.1319 116.072 69.8562 118.745C67.5875 121.418 60.7816 122.127 60.7816 122.127L76.0099 122.51L75.3292 99.8233Z" fill="#E87610"/>
</g>
<mask id="mask14_0_35" style="mask-type:luminance" maskUnits="userSpaceOnUse" x="56" y="78" width="50" height="54">
<path d="M96.612 85.6302C93.1736 76.4351 80.0297 78.491 80.0297 78.491C64.6383 85.5025 57.8608 113.357 56.4216 120.085C56.2656 120.801 56.8541 121.46 57.5843 121.397C63.1354 120.893 83.3334 119.972 98.2355 131.201C98.2355 131.201 112.67 110.323 101.468 83.2977L96.612 85.6302Z" fill="white"/>
</mask>
<g mask="url(#mask14_0_35)">
<path d="M92.7127 112.159C92.7127 112.159 96.1086 97.186 94.3291 89.8342C92.5496 82.4824 102.503 99.2491 96.8813 115.888C96.3567 117.448 94.1093 120.262 94.1093 120.262C94.1093 120.262 101.688 131.024 99.5044 132.598C97.966 133.711 91.1246 119.844 91.1246 119.844L92.7127 112.159Z" fill="#FC8815"/>
</g>
<mask id="mask15_0_35" style="mask-type:luminance" maskUnits="userSpaceOnUse" x="56" y="78" width="50" height="54">
<path d="M96.612 85.6302C93.1736 76.4351 80.0297 78.491 80.0297 78.491C64.6383 85.5025 57.8608 113.357 56.4216 120.085C56.2656 120.801 56.8541 121.46 57.5843 121.397C63.1354 120.893 83.3334 119.972 98.2355 131.201C98.2355 131.201 112.67 110.323 101.468 83.2977L96.612 85.6302Z" fill="white"/>
</mask>
<g mask="url(#mask15_0_35)">
<path d="M92.9538 89.4584C92.9538 89.4584 99.4833 99.7595 96.2717 112.343C95.343 115.966 94.471 118.114 93.209 120.163C93.1169 120.319 93.2091 120.362 93.3083 120.461C94.5844 121.751 95.4139 122.992 96.8885 126.749C98.3206 130.393 99.0224 133.059 99.0224 133.059C99.0224 133.059 91.9187 128.401 90.749 120.588C90.0967 116.236 93.8896 109.912 94.2157 104.07C95.1303 87.7286 92.9538 89.4584 92.9538 89.4584Z" fill="#E87610"/>
</g>
<path d="M96.7467 86.5447C96.7467 86.5447 87.3956 68.6224 71.1819 88.5935C62.2137 99.6461 60.6611 105.637 60.6611 105.637C60.6611 105.637 48.5381 93.2797 46.4112 87.282C44.2844 81.2843 69.3032 67.7717 69.3032 67.7717C69.3032 67.7717 95.8038 71.841 101.66 83.5529" fill="#FFAA00"/>
<mask id="mask16_0_35" style="mask-type:luminance" maskUnits="userSpaceOnUse" x="46" y="67" width="56" height="39">
<path d="M96.7467 86.5447C96.7467 86.5447 87.3956 68.6224 71.1819 88.5935C62.2137 99.6461 60.6611 105.637 60.6611 105.637C60.6611 105.637 48.5381 93.2797 46.4112 87.282C44.2844 81.2843 69.3032 67.7717 69.3032 67.7717C69.3032 67.7717 95.8038 71.841 101.66 83.5529" fill="white"/>
</mask>
<g mask="url(#mask16_0_35)">
<path d="M45.0358 88.154C65.7868 98.6961 70.8912 74.5634 86.1975 77.5197C101.504 80.476 93.0672 95.2718 93.0672 95.2718C93.0672 95.2718 93.8825 84.829 93.528 84.3469C93.1736 83.8719 84.1486 68.2963 61.5331 107.104C61.5402 107.104 37.1807 84.1626 45.0358 88.154Z" fill="#FC8815"/>
</g>
<mask id="mask17_0_35" style="mask-type:luminance" maskUnits="userSpaceOnUse" x="46" y="67" width="56" height="39">
<path d="M96.7467 86.5447C96.7467 86.5447 87.3956 68.6224 71.1819 88.5935C62.2137 99.6461 60.6611 105.637 60.6611 105.637C60.6611 105.637 48.5381 93.2797 46.4112 87.282C44.2844 81.2843 69.3032 67.7717 69.3032 67.7717C69.3032 67.7717 95.8038 71.841 101.66 83.5529" fill="white"/>
</mask>
<g mask="url(#mask17_0_35)">
<path d="M58.4279 107.104C58.4279 107.104 51.9977 97.7602 52.6074 98.689C62.3484 113.676 67.8569 77.2078 87.0695 78.5548C96.6687 79.2283 96.9735 92.5495 96.9735 92.5495C96.9735 92.5495 87.2326 73.5283 78.002 84.3469C68.7715 95.1655 60.966 106.665 60.966 106.665L58.4279 107.104Z" fill="#E87610"/>
</g>
<path d="M57.5204 118.696C57.5204 118.703 60.0301 107.069 64.298 99.7736C72.6282 85.5237 77.4136 82.5461 81.0647 80.7879C85.5595 78.6186 89.5934 80.3555 92.6631 82.8226C93.2586 83.2976 93.7833 83.8577 94.2086 84.4887C94.2086 84.4887 80.1927 65.0847 57.5204 118.696Z" fill="#FFC776"/>
<path d="M71.6925 69.3526C71.6925 69.3526 120.759 69.3526 99.9584 127.401C99.9654 127.409 118.909 73.8474 71.6925 69.3526Z" fill="#FFC776"/>
<path d="M95.5274 82.4044C96.0638 82.4044 96.4987 82.1758 96.4987 81.8939C96.4987 81.612 96.0638 81.3835 95.5274 81.3835C94.991 81.3835 94.5562 81.612 94.5562 81.8939C94.5562 82.1758 94.991 82.4044 95.5274 82.4044Z" fill="#E87610"/>
<path d="M95.5982 81.7805C96.69 82.1917 97.5337 82.9787 98.2639 83.8081C98.9799 84.6589 99.5825 85.6018 99.9441 86.6439C100.1 87.1756 100.206 87.7215 100.32 88.2603C100.405 88.8062 100.49 89.345 100.639 89.8626C100.788 90.373 100.915 90.8976 101.114 91.3939C101.206 91.6491 101.312 91.8973 101.419 92.1454C101.504 92.4006 101.617 92.6487 101.716 92.904C101.915 93.4073 102.156 93.9107 102.312 94.4353C102.468 94.9528 102.589 95.4845 102.709 96.0163C102.844 96.548 102.929 97.0797 103 97.6185C103.085 98.1573 103.134 98.6961 103.17 99.2349C103.184 100.32 103.113 101.404 102.978 102.475C102.787 103.545 102.553 104.609 102.163 105.651L101.95 105.637C101.617 104.566 101.44 103.517 101.298 102.475C101.1 101.44 100.986 100.405 100.894 99.3767C100.752 98.3558 100.802 97.3136 100.703 96.2857C100.618 95.2577 100.611 94.2155 100.568 93.1592C100.554 92.6275 100.525 92.0958 100.405 91.5924C100.299 91.082 100.185 90.5644 99.9724 90.0894C99.7669 89.6073 99.4974 89.1465 99.2139 88.707C98.9019 88.2745 98.5971 87.8491 98.3277 87.4167C97.2713 85.6656 96.4773 83.879 95.4493 81.9578L95.5982 81.7805Z" fill="#4A2605"/>
<path d="M113.485 11.1832C113.074 10.8288 122.17 0.641154 125.466 0.485185C129.33 0.293768 131.358 10.453 131.358 10.453C131.358 10.453 129.131 -0.457724 125.537 1.32174C118.986 4.56164 115.782 10.7224 114.768 11.1903C113.754 11.6441 113.896 11.5377 113.485 11.1832Z" fill="#C1C1C1"/>
<path d="M97.1224 44.2416C97.0586 43.9935 99.4477 43.3412 101.567 43.0009C103.609 42.6748 105.842 42.7386 105.878 43.0435C105.913 43.3412 103.673 43.4405 101.681 43.7453C99.5399 44.0644 97.1862 44.4897 97.1224 44.2416Z" fill="#F7F7F7"/>
<path d="M92.5284 119.667C92.5284 119.667 76.1233 130.195 73.089 116.129C73.7625 106.012 75.145 98.9229 75.7688 96.4061C75.7688 96.4061 85.843 76.0947 94.1874 88.3525C94.1874 88.3525 100.029 107.31 92.5284 119.667Z" fill="#FFAA00"/>
<path d="M74.819 118.518C74.8119 110.202 79.1932 94.9173 76.3787 95.8744C76.3787 95.8744 73.6208 111.741 73.9753 118.518" fill="#FFC776"/>
<path d="M82.7663 115.023C82.7663 115.023 91.9117 116.611 94.0953 122.793C94.0953 122.793 91.5785 114.669 82.7663 115.023Z" fill="#E87610"/>
<path d="M81.4121 112.549C81.4121 112.549 90.196 113.081 92.8546 120.518C92.8546 120.518 91.8053 112.591 81.4121 112.549Z" fill="#E87610"/>
<path d="M139.822 89.9689C139.822 89.9689 142.339 90.7204 143.14 91.4293C143.948 92.1383 144.438 94.7472 144.438 94.7472C144.743 95.045 144.743 95.5413 144.445 95.8461L142.658 97.6468C142.36 97.9517 141.864 97.9517 141.559 97.6539L136.866 92.989C136.561 92.6913 136.561 92.195 136.859 91.8902L138.645 90.0894C138.95 89.7846 139.525 89.6641 139.822 89.9689Z" fill="#FFAA00"/>
<mask id="mask18_0_35" style="mask-type:luminance" maskUnits="userSpaceOnUse" x="136" y="89" width="9" height="9">
<path d="M139.822 89.9689C139.822 89.9689 142.339 90.7204 143.14 91.4293C143.948 92.1383 144.438 94.7472 144.438 94.7472C144.743 95.045 144.743 95.5413 144.445 95.8461L142.658 97.6468C142.36 97.9517 141.864 97.9517 141.559 97.6539L136.866 92.989C136.561 92.6913 136.561 92.195 136.859 91.8902L138.645 90.0894C138.95 89.7846 139.525 89.6641 139.822 89.9689Z" fill="white"/>
</mask>
<g mask="url(#mask18_0_35)">
<path d="M143.119 99.0718C143.119 99.0718 144.799 91.5002 136.107 90.1815L137.291 90.8976L143.119 99.0718Z" fill="#FC8815"/>
</g>
<mask id="mask19_0_35" style="mask-type:luminance" maskUnits="userSpaceOnUse" x="136" y="89" width="9" height="9">
<path d="M139.822 89.9689C139.822 89.9689 142.339 90.7204 143.14 91.4293C143.948 92.1383 144.438 94.7472 144.438 94.7472C144.743 95.045 144.743 95.5413 144.445 95.8461L142.658 97.6468C142.36 97.9517 141.864 97.9517 141.559 97.6539L136.866 92.989C136.561 92.6913 136.561 92.195 136.859 91.8902L138.645 90.0894C138.95 89.7846 139.525 89.6641 139.822 89.9689Z" fill="white"/>
</mask>
<g mask="url(#mask19_0_35)">
<path d="M143.098 99.0859C143.098 99.0859 143.091 92.0461 135.193 90.3517L136.15 91.72L143.098 99.0859Z" fill="#E87610"/>
</g>
<path d="M143.97 95.5483C143.97 95.5483 143.438 92.4006 142.871 91.8405C142.275 91.2521 139.759 90.5502 139.759 90.5502C139.759 90.5502 139.525 90.0327 139.971 90.2879C140.418 90.5431 142.616 91.0748 143.162 91.7129C143.715 92.358 144.565 95.3853 143.97 95.5483Z" fill="#FFC776"/>
<mask id="mask20_0_35" style="mask-type:luminance" maskUnits="userSpaceOnUse" x="115" y="89" width="28" height="33">
<path d="M115.066 115.477C114.825 110.684 116.753 106.041 120.234 102.737C125.516 97.7106 134.3 89.7278 136.497 89.9547C138.497 90.1603 142.694 95.9524 142.694 98.2778C142.694 100.603 130.663 119.348 121.049 121.723C116.505 122.843 115.25 119.128 115.066 115.477Z" fill="white"/>
</mask>
<g mask="url(#mask20_0_35)">
<path d="M115.066 115.477C114.825 110.684 116.753 106.041 120.234 102.737C125.516 97.7106 134.3 89.7278 136.497 89.9547C138.497 90.1603 142.694 95.9524 142.694 98.2778C142.694 100.603 130.663 119.348 121.049 121.723C116.505 122.843 115.25 119.128 115.066 115.477Z" fill="#FFAA00"/>
</g>
<mask id="mask21_0_35" style="mask-type:luminance" maskUnits="userSpaceOnUse" x="115" y="89" width="28" height="33">
<path d="M115.066 115.477C114.825 110.684 116.753 106.041 120.234 102.737C125.516 97.7106 134.3 89.7278 136.497 89.9547C138.497 90.1603 142.694 95.9524 142.694 98.2778C142.694 100.603 130.663 119.348 121.049 121.723C116.505 122.843 115.25 119.128 115.066 115.477Z" fill="white"/>
</mask>
<g mask="url(#mask21_0_35)">
<path d="M142.92 99.561C142.92 99.561 130.521 116.058 125.338 113.492C125.338 113.492 122.417 111.315 122.439 104.58C122.46 97.8453 116.569 81.8656 113.18 80.3271L125.267 124.325L142.92 99.561Z" fill="#FC8815"/>
</g>
<mask id="mask22_0_35" style="mask-type:luminance" maskUnits="userSpaceOnUse" x="115" y="89" width="28" height="33">
<path d="M115.066 115.477C114.825 110.684 116.753 106.041 120.234 102.737C125.516 97.7106 134.3 89.7278 136.497 89.9547C138.497 90.1603 142.694 95.9524 142.694 98.2778C142.694 100.603 130.663 119.348 121.049 121.723C116.505 122.843 115.25 119.128 115.066 115.477Z" fill="white"/>
</mask>
<g mask="url(#mask22_0_35)">
<path d="M122.205 110.833C122.205 110.833 122.474 121.262 132.584 115.293L123.318 123.013L122.205 110.833Z" fill="#E87610"/>
</g>
<mask id="mask23_0_35" style="mask-type:luminance" maskUnits="userSpaceOnUse" x="115" y="89" width="28" height="33">
<path d="M115.066 115.477C114.825 110.684 116.753 106.041 120.234 102.737C125.516 97.7106 134.3 89.7278 136.497 89.9547C138.497 90.1603 142.694 95.9524 142.694 98.2778C142.694 100.603 130.663 119.348 121.049 121.723C116.505 122.843 115.25 119.128 115.066 115.477Z" fill="white"/>
</mask>
<g mask="url(#mask23_0_35)">
<path d="M113.18 81.9932C113.18 81.9932 121.021 87.0693 123.318 116.158L113.18 81.9932Z" fill="#E87610"/>
</g>
<path d="M136.675 90.8338C127.487 94.1021 123.304 101.787 123.304 101.787C128.578 95.9737 136.675 90.8338 136.675 90.8338Z" fill="#FFC776"/>
<path d="M101.787 147.5C101.787 147.5 100.405 149.733 99.5115 150.322C98.6183 150.91 95.9668 150.705 95.9668 150.705C95.5981 150.917 95.1161 150.79 94.9034 150.421L93.6343 148.223C93.4216 147.855 93.5493 147.373 93.9179 147.16L99.6462 143.849C100.015 143.636 100.497 143.764 100.71 144.133L101.979 146.33C102.191 146.706 102.156 147.288 101.787 147.5Z" fill="#FFAA00"/>
<mask id="mask24_0_35" style="mask-type:luminance" maskUnits="userSpaceOnUse" x="93" y="143" width="10" height="8">
<path d="M101.787 147.5C101.787 147.5 100.405 149.733 99.5115 150.322C98.6183 150.91 95.9668 150.705 95.9668 150.705C95.5981 150.917 95.1161 150.79 94.9034 150.421L93.6343 148.223C93.4216 147.855 93.5493 147.373 93.9179 147.16L99.6462 143.849C100.015 143.636 100.497 143.764 100.71 144.133L101.979 146.33C102.191 146.706 102.156 147.288 101.787 147.5Z" fill="white"/>
</mask>
<g mask="url(#mask24_0_35)">
<path d="M92.1383 148.294C92.1383 148.294 99.001 151.903 102.56 143.856L101.56 144.813L92.1383 148.294Z" fill="#FC8815"/>
</g>
<mask id="mask25_0_35" style="mask-type:luminance" maskUnits="userSpaceOnUse" x="93" y="143" width="10" height="8">
<path d="M101.787 147.5C101.787 147.5 100.405 149.733 99.5115 150.322C98.6183 150.91 95.9668 150.705 95.9668 150.705C95.5981 150.917 95.1161 150.79 94.9034 150.421L93.6343 148.223C93.4216 147.855 93.5493 147.373 93.9179 147.16L99.6462 143.849C100.015 143.636 100.497 143.764 100.71 144.133L101.979 146.33C102.191 146.706 102.156 147.288 101.787 147.5Z" fill="white"/>
</mask>
<g mask="url(#mask25_0_35)">
<path d="M92.1312 148.266C92.1312 148.266 98.923 150.102 102.631 142.927L101.057 143.488L92.1312 148.266Z" fill="#E87610"/>
</g>
<path d="M82.4612 111.897C88.0831 112.017 91.316 116.718 91.316 116.718C91.316 116.718 103.652 141.198 102.397 143.672C101.142 146.146 94.4424 149.365 92.3723 148.245C90.3022 147.124 72.4154 126.033 73.0889 115.916C73.0605 112.152 73.2873 111.698 82.4612 111.897Z" fill="#FFAA00"/>
<path d="M74.8187 118.313C74.8258 125.884 89.3522 142.304 92.0533 146.153C94.3999 149.499 92.3653 147.635 92.3653 147.635C92.3653 147.635 74.4501 127.104 73.9822 118.32C73.9822 118.32 73.649 111.138 74.8329 110.606C76.0098 110.068 74.8187 118.313 74.8187 118.313Z" fill="#FFC776"/>
<path d="M82.7732 114.818C82.7732 114.818 91.9187 116.406 94.1023 122.588C94.1023 122.588 91.5784 114.463 82.7732 114.818Z" fill="#E87610"/>
<path d="M81.4119 112.343C81.4119 112.343 90.1958 112.875 92.8544 120.312C92.8544 120.312 91.8122 112.386 81.4119 112.343Z" fill="#E87610"/>
<path d="M95.3144 150.038C95.3144 150.038 98.4905 150.35 99.1782 149.946C99.9013 149.521 101.234 147.28 101.234 147.28C101.234 147.28 101.794 147.188 101.433 147.557C101.064 147.926 99.9793 149.896 99.2207 150.265C98.4621 150.634 95.3144 150.655 95.3144 150.038Z" fill="#FFC776"/>
<path d="M111.443 71.7701C111.443 71.7701 107.267 74.2585 107.381 81.5465C107.501 88.8345 109.416 115.583 116.257 130.074C116.257 130.074 122.652 130.039 124.176 124.927C125.608 120.128 122.708 105.147 113.357 77.385" fill="#FFAA00"/>
<mask id="mask26_0_35" style="mask-type:luminance" maskUnits="userSpaceOnUse" x="107" y="71" width="18" height="60">
<path d="M111.443 71.7701C111.443 71.7701 107.267 74.2585 107.381 81.5465C107.501 88.8345 109.416 115.583 116.257 130.074C116.257 130.074 122.652 130.039 124.176 124.927C125.608 120.128 122.708 105.147 113.357 77.385" fill="white"/>
</mask>
<g mask="url(#mask26_0_35)">
<path d="M112.117 70.182C112.117 70.182 104.212 87.4237 116.264 130.074C116.264 130.074 97.0302 76.7327 111.45 70.182H113.045C113.038 70.182 113.485 69.7283 112.117 70.182Z" fill="#FC8815"/>
</g>
<path d="M113.038 77.7607C113.038 77.7607 124.97 112.251 123.304 123.367C123.304 123.367 117.278 91.2875 113.038 77.7607Z" fill="#FFC776"/>
<path d="M110.347 78.848C110.843 78.6422 111.157 78.2643 111.048 78.0039C110.94 77.7436 110.451 77.6994 109.956 77.9052C109.46 78.111 109.146 78.4889 109.254 78.7493C109.363 79.0096 109.852 79.0538 110.347 78.848Z" fill="#E87610"/>
<path d="M110.266 78.257C110.309 79.3133 110.344 80.3059 110.351 81.2913C110.366 81.7876 110.351 82.2767 110.344 82.773C110.358 83.2693 110.302 83.7584 110.245 84.2547C110.096 85.2402 109.813 86.261 109.813 87.2819C109.827 87.7853 109.883 88.2886 109.976 88.792C110.061 89.2883 110.238 89.7774 110.394 90.2666L110.89 91.7129C111.053 92.195 111.181 92.6841 111.308 93.1662C111.578 94.1375 111.897 95.0946 112.074 96.08C112.294 97.0584 112.443 98.058 112.556 99.0789C112.684 100.093 112.783 101.121 112.733 102.205L112.528 102.269C111.89 101.404 111.401 100.475 110.94 99.5397C110.514 98.5897 110.167 97.6113 109.862 96.6259C109.607 95.6192 109.451 94.5912 109.33 93.5632C109.21 92.5282 109.153 91.4931 109.238 90.4368C109.274 89.3875 109.295 88.3595 109.132 87.3457C109.004 86.3248 108.6 85.311 108.473 84.2618C108.338 83.2125 108.48 82.1562 108.707 81.1211C108.834 80.6036 108.99 80.0861 109.21 79.5969C109.43 79.1006 109.678 78.6185 110.068 78.1932L110.266 78.257Z" fill="#4A2605"/>
<path d="M102.071 53.1673L102.17 48.6017C102.17 48.5662 102.227 48.5591 102.234 48.5946L102.844 53.0042C102.844 53.0042 104.105 54.0535 105.743 52.2882C107.381 50.5229 106.821 54.1386 102.78 54.4789C98.7387 54.8192 97.6115 52.6072 98.8663 53.1602C100.114 53.7203 101.78 53.7699 102.071 53.1673Z" fill="#3D3D3D"/>
<path d="M70.9053 177.716C70.9053 177.716 87.4806 160.439 90.7914 166.869C94.1022 173.299 92.3156 188.329 84.9496 199.296L75.9176 201.792C75.9176 201.792 75.5489 193.561 68.9486 183.118C62.3554 172.675 70.9053 177.716 70.9053 177.716Z" fill="#A3A3A3"/>
<path d="M54.3301 152.839C53.7842 144.87 55.1596 135.001 59.9805 122.942C59.9805 122.942 49.5518 140.212 52.6145 157.808C52.8626 156.22 53.3872 154.611 54.2451 152.995C54.2734 152.945 54.3018 152.888 54.3301 152.839Z" fill="#C1C1C1"/>
<path d="M70.8699 181.835C70.9685 181.891 71.0178 181.912 71.0178 181.912C70.9755 181.884 70.9262 181.863 70.8699 181.835Z" fill="#C1C1C1"/>
<path d="M70.8699 181.835C69.289 180.963 55.7125 172.895 54.3301 152.839C54.3017 152.888 54.2734 152.945 54.245 152.995C53.3872 154.611 52.8626 156.22 52.6144 157.808C53.3659 162.105 54.9114 166.422 57.6196 170.506C57.6267 170.506 61.7599 176.943 70.8699 181.835Z" fill="#C1C1C1"/>
<path d="M54.33 152.839C54.33 152.839 52.4371 156.858 52.6144 157.808L54.33 152.839Z" fill="#A3A3A3"/>
<mask id="mask27_0_35" style="mask-type:luminance" maskUnits="userSpaceOnUse" x="52" y="143" width="41" height="42">
<path d="M52.6215 157.808C50.9768 168.329 61.4763 177.794 66.6587 181.764C68.3177 183.033 69.4308 183.735 69.4308 183.735C102.092 189.144 89.6925 160.921 89.6925 160.921C87.0198 154.639 83.7444 150.52 80.4336 147.833C72.0539 141.035 59.4771 143.381 54.3301 152.831" fill="white"/>
</mask>
<g mask="url(#mask27_0_35)">
<path d="M89.6927 160.921C87.02 154.639 83.7446 150.52 80.4338 147.833C72.0541 141.035 59.4773 143.381 54.3303 152.831C55.7127 172.888 69.2892 180.956 70.8701 181.828C70.9197 181.856 70.9694 181.884 71.019 181.906C71.019 181.906 70.9694 181.877 70.8701 181.828C61.753 176.936 57.6198 170.499 57.6198 170.499C54.9116 166.408 53.3661 162.097 52.6146 157.801C50.9699 168.322 61.4694 177.787 66.6519 181.757C68.3108 183.026 69.4239 183.728 69.4239 183.728C102.092 189.144 89.6927 160.921 89.6927 160.921Z" fill="#A3A3A3"/>
</g>
<mask id="mask28_0_35" style="mask-type:luminance" maskUnits="userSpaceOnUse" x="104" y="163" width="23" height="36">
<path d="M104.332 188.378C104.332 188.378 123.58 159.701 126.416 164.366C129.252 169.031 115.895 193.341 116.058 195.95C116.221 198.559 106.31 198.396 106.31 198.396L104.332 188.378Z" fill="white"/>
</mask>
<g mask="url(#mask28_0_35)">
<path d="M102.539 168.79L114.357 143.998C117.434 144.636 115.442 142.41 118.256 143.998C121.801 145.997 125.651 155.575 126.097 159.411C126.827 165.671 126.381 169.109 124.488 175.05C123.318 178.737 121.858 182.317 120.277 185.84C119.483 187.606 118.66 189.357 117.831 191.101C117.122 192.597 116.08 194.241 116.002 195.943C115.931 197.573 115.895 199.246 116.314 200.842L107.126 201.799C107.126 201.799 102.992 179.523 101.1 179.594C99.2137 179.665 101.1 179.594 101.1 179.594" fill="#A3A3A3"/>
<path d="M122.567 152.115C122.567 152.115 130.847 161.552 121.567 180.431C121.567 180.431 127.884 165.394 122.567 152.115Z" fill="#C1C1C1"/>
</g>
<mask id="mask29_0_35" style="mask-type:luminance" maskUnits="userSpaceOnUse" x="50" y="143" width="42" height="42">
<path d="M56.925 148.961C56.925 148.961 67.9562 137.617 81.0647 147.996C94.1732 158.375 95.9031 181.076 83.9785 183.033C72.054 184.989 65.5174 188.081 54.4153 167.493C43.3131 146.905 56.925 148.961 56.925 148.961Z" fill="white"/>
</mask>
<g mask="url(#mask29_0_35)">
<path d="M70.9054 181.494C69.3244 180.622 55.748 172.554 54.3656 152.498C54.3372 152.548 54.3088 152.605 54.2805 152.654C53.4226 154.271 52.898 155.88 52.6499 157.468C53.4014 161.764 54.9469 166.082 57.6551 170.165C57.6551 170.165 61.7883 176.603 70.9054 181.494Z" fill="#C1C1C1"/>
</g>
<mask id="mask30_0_35" style="mask-type:luminance" maskUnits="userSpaceOnUse" x="50" y="143" width="42" height="42">
<path d="M56.925 148.961C56.925 148.961 67.9562 137.617 81.0647 147.996C94.1732 158.375 95.9031 181.076 83.9785 183.033C72.054 184.989 65.5174 188.081 54.4153 167.493C43.3131 146.905 56.925 148.961 56.925 148.961Z" fill="white"/>
</mask>
<g mask="url(#mask30_0_35)">
<mask id="mask31_0_35" style="mask-type:luminance" maskUnits="userSpaceOnUse" x="52" y="143" width="41" height="42">
<path d="M52.65 157.468C51.0052 167.989 61.5048 177.453 66.6872 181.423C68.3461 182.692 69.4592 183.394 69.4592 183.394C102.121 188.804 89.721 160.58 89.721 160.58C87.0483 154.299 83.7729 150.18 80.4621 147.493C72.0823 140.694 59.5056 143.041 54.3586 152.491" fill="white"/>
</mask>
<g mask="url(#mask31_0_35)">
<path d="M89.7281 160.58C87.0553 154.299 83.78 150.18 80.4692 147.493C72.0894 140.694 59.5127 143.041 54.3657 152.491C55.7481 172.547 69.3245 180.615 70.9055 181.487C70.9551 181.516 71.0047 181.544 71.0543 181.565C71.0543 181.565 71.0047 181.537 70.9055 181.487C61.7884 176.596 57.6552 170.158 57.6552 170.158C54.947 166.068 53.4015 161.757 52.65 157.461C51.0052 167.982 61.5048 177.446 66.6872 181.416C68.3461 182.685 69.4592 183.387 69.4592 183.387C102.121 188.804 89.7281 160.58 89.7281 160.58Z" fill="#A3A3A3"/>
</g>
</g>
<path d="M152.976 82.5055C153.16 84.0891 152.243 85.5198 151.381 86.7366C150.611 87.8127 149.834 88.9011 148.881 89.7326C147.927 90.5581 146.76 91.1145 145.592 90.9799C143.404 90.7293 141.851 88.1979 141.161 85.6544C140.989 85.0185 140.873 84.2358 141.252 83.7528C141.619 83.282 142.291 83.3676 142.713 83.765C143.135 84.1625 143.367 84.7739 143.587 85.3609C143.587 85.367 143.593 85.367 143.6 85.3609C144.541 83.551 145.482 81.7473 146.424 79.9375C146.827 79.167 147.292 78.3355 148.013 78.0787C148.863 77.7791 149.737 78.3905 150.476 78.9775C151.583 79.858 152.787 80.9158 152.976 82.5055Z" fill="#757575"/>
</svg>
