<svg width="15" height="15" viewBox="0 0 15 15" fill="none" xmlns="http://www.w3.org/2000/svg">
<g clip-path="url(#clip0_271_3865)">
<path d="M12.9995 2.68312C12.8803 2.57685 12.7249 2.52025 12.5653 2.52494C12.4057 2.52964 12.2539 2.59527 12.1411 2.70836C12.0283 2.82145 11.9631 2.97343 11.9589 3.13308C11.9546 3.29273 12.0117 3.44796 12.1183 3.56687C13.1597 4.61092 13.7445 6.02537 13.7445 7.5C13.7445 8.97463 13.1597 10.3891 12.1183 11.4331C12.0548 11.4897 12.0036 11.5586 11.9677 11.6357C11.9318 11.7127 11.9119 11.7963 11.9094 11.8813C11.907 11.9663 11.9218 12.0509 11.9531 12.1299C11.9845 12.209 12.0316 12.2808 12.0916 12.341C12.1516 12.4012 12.2233 12.4485 12.3023 12.4801C12.3812 12.5116 12.4658 12.5267 12.5508 12.5245C12.6358 12.5222 12.7194 12.5026 12.7966 12.4669C12.8737 12.4312 12.9428 12.3802 12.9995 12.3169C14.2753 11.0384 14.9918 9.30609 14.9918 7.5C14.9918 5.69391 14.2753 3.96158 12.9995 2.68312Z" fill="white"/>
<path d="M11.308 4.55812C11.2503 4.49843 11.1813 4.45082 11.1051 4.41806C11.0288 4.38531 10.9468 4.36806 10.8638 4.36734C10.7808 4.36662 10.6985 4.38244 10.6217 4.41386C10.5449 4.44529 10.4751 4.49169 10.4165 4.55038C10.3578 4.60906 10.3114 4.67884 10.2799 4.75565C10.2485 4.83246 10.2327 4.91476 10.2334 4.99775C10.2341 5.08074 10.2514 5.16275 10.2841 5.239C10.3169 5.31525 10.3645 5.38422 10.4242 5.44187C10.969 5.98829 11.2749 6.72841 11.2749 7.5C11.2749 8.27159 10.969 9.01171 10.4242 9.55812C10.3645 9.61578 10.3169 9.68474 10.2841 9.761C10.2514 9.83725 10.2341 9.91926 10.2334 10.0022C10.2327 10.0852 10.2485 10.1675 10.2799 10.2443C10.3114 10.3212 10.3578 10.3909 10.4165 10.4496C10.4751 10.5083 10.5449 10.5547 10.6217 10.5861C10.6985 10.6176 10.7808 10.6334 10.8638 10.6327C10.9468 10.6319 11.0288 10.6147 11.1051 10.5819C11.1813 10.5492 11.2503 10.5016 11.308 10.4419C12.0869 9.66097 12.5244 8.603 12.5244 7.5C12.5244 6.397 12.0869 5.33903 11.308 4.55812Z" fill="white"/>
<path d="M8.63688 0.129374C6.73783 0.485827 5.04831 1.55825 3.9175 3.125H3.125C2.2965 3.12599 1.50222 3.45555 0.916387 4.04139C0.330551 4.62722 0.000992411 5.4215 0 6.25L0 8.75C0.000992411 9.5785 0.330551 10.3728 0.916387 10.9586C1.50222 11.5444 2.2965 11.874 3.125 11.875H3.91813C5.04861 13.4418 6.73796 14.5143 8.63688 14.8706C8.72699 14.8872 8.81966 14.8838 8.9083 14.8606C8.99695 14.8374 9.07941 14.7949 9.14984 14.7363C9.22026 14.6777 9.27694 14.6043 9.31585 14.5213C9.35476 14.4384 9.37496 14.3479 9.375 14.2563V0.743749C9.37496 0.652116 9.35476 0.561613 9.31585 0.478652C9.27694 0.395691 9.22026 0.3223 9.14984 0.263679C9.07941 0.205058 8.99695 0.162641 8.9083 0.139431C8.81966 0.116222 8.72699 0.112788 8.63688 0.129374Z" fill="white"/>
</g>
<defs>
<clipPath id="clip0_271_3865">
<rect width="15" height="15" fill="white"/>
</clipPath>
</defs>
</svg>
