<svg width="39" height="37" viewBox="0 0 39 37" fill="none" xmlns="http://www.w3.org/2000/svg">
<path d="M19.8057 31.3892L19.4993 31.1511L19.1926 31.3888L13.9037 35.488C13.0514 36.1195 12.0138 36.4672 10.9432 36.4785C9.87097 36.4898 8.8243 36.1629 7.95745 35.5476L7.95747 35.5475L7.9526 35.5442C7.08765 34.9454 6.44461 34.0901 6.11716 33.1067C5.78974 32.1234 5.79472 31.063 6.13137 30.0827L6.13498 30.0722L6.13812 30.0615L7.98377 23.7931L8.08513 23.4488L7.7914 23.2426L2.5632 19.5725C2.56283 19.5722 2.56246 19.572 2.56209 19.5717C1.7066 18.9631 1.07119 18.1057 0.74506 17.1237C0.418834 16.1413 0.418302 15.0831 0.743537 14.1004C1.06881 13.1175 1.70377 12.2592 2.5592 11.6498C3.41477 11.0402 4.44641 10.7114 5.50607 10.7119H5.5063H12.2021H12.5691L12.6791 10.3618L14.7183 3.87283C15.05 2.89492 15.6872 2.04215 16.5419 1.43623C17.3982 0.829183 18.4287 0.501161 19.4874 0.500003C20.5461 0.498845 21.5774 0.824612 22.4351 1.42979C23.2911 2.0338 23.9302 2.88509 24.2642 3.86218L26.3149 10.3623L26.4252 10.7119H26.7918H33.4896H33.4902C34.5488 10.7107 35.5798 11.0381 36.4355 11.646C37.2909 12.2538 37.9267 13.1102 38.2536 14.0916C38.5804 15.0728 38.5822 16.13 38.2587 17.1123C37.9354 18.0941 37.3031 18.9522 36.4505 19.5627C36.45 19.5631 36.4495 19.5634 36.449 19.5638L31.229 23.2432L30.937 23.449L31.0371 23.7919L32.8847 30.1235L32.8872 30.1321L32.8901 30.1407C33.2131 31.1158 33.2086 32.1667 32.8771 33.1392C32.5456 34.1118 31.9039 34.9562 31.0446 35.5471L31.0445 35.547L31.0366 35.5526C30.1834 36.1639 29.1539 36.496 28.095 36.5C27.0273 36.4959 25.9902 36.1558 25.1361 35.5312L19.8057 31.3892Z" fill="#363A40" stroke="url(#paint0_linear_898_4060)"/>
<defs>
<linearGradient id="paint0_linear_898_4060" x1="0.49367" y1="19.0152" x2="39.0488" y2="19.5734" gradientUnits="userSpaceOnUse">
<stop stop-color="#6E39DF"/>
<stop offset="1" stop-color="white" stop-opacity="0"/>
</linearGradient>
</defs>
</svg>
