<svg width="43" height="41" viewBox="0 0 43 41" fill="none" xmlns="http://www.w3.org/2000/svg">
<path d="M30.9766 41C29.6804 40.9954 28.4201 40.5799 27.3821 39.8148L21.4988 35.2201L15.6628 39.766C14.6281 40.5382 13.3692 40.9624 12.0714 40.9761C10.7737 40.9899 9.50577 40.5924 8.45447 39.8423C7.40387 39.1114 6.62071 38.0657 6.22151 36.8608C5.82231 35.6559 5.82838 34.3561 6.23883 33.1549L8.27378 26.2088L2.50666 22.14C1.46847 21.3982 0.695368 20.3513 0.298287 19.1495C-0.0987945 17.9477 -0.0994434 16.6528 0.296433 15.4506C0.692309 14.2485 1.46436 13.2008 2.50181 12.458C3.53925 11.7151 4.78876 11.3153 6.07104 11.3159H13.4536L15.7037 4.11962C16.1066 2.92157 16.8819 1.87892 17.9197 1.13951C18.9575 0.400086 20.205 0.00141136 21.4855 3.74031e-06C22.766 -0.00140388 24.0145 0.394526 25.0539 1.13166C26.0934 1.8688 26.871 2.90974 27.2767 4.1069L29.5396 11.3159H36.9244C38.2055 11.3144 39.4542 11.7125 40.4917 12.4533C41.5292 13.1941 42.3022 14.2396 42.7 15.4399C43.0978 16.6403 43.1 17.9339 42.7063 19.1355C42.3126 20.3372 41.5431 21.3852 40.5081 22.1294L34.7496 26.2088L36.7867 33.2249C37.1807 34.4202 37.1752 35.7086 36.7709 36.9005C36.3667 38.0925 35.585 39.1251 34.541 39.8466C33.5059 40.5918 32.2584 40.9955 30.9766 41Z" fill="url(#paint0_linear_898_4203)"/>
<defs>
<linearGradient id="paint0_linear_898_4203" x1="21.5" y1="45.3282" x2="21.5" y2="16.6672" gradientUnits="userSpaceOnUse">
<stop stop-color="#FA6B49"/>
<stop offset="1" stop-color="#FEB749"/>
</linearGradient>
</defs>
</svg>
