<?xml version="1.0" encoding="UTF-8"?>
<!-- Generator: visioncortex VTracer 0.6.3 -->
<svg version="1.1" xmlns="http://www.w3.org/2000/svg" width="129" height="58">
<path d="M0 0 C13.82 0 13.82 0 18.39 4.31 C23.11 9.46 25.53 15.14 28.12 21.56 C32.41 32.01 36.51 41.58 47.06 47.07 C58.79 51.49 71.97 50.94 83.31 45.81 C94.59 39.62 98.69 27.21 103.69 16 C106.49 9.79 109.3 4.94 115 1 C118 0 118 0 129 0 C129 19.14 129 38.28 129 58 C86.43 58 43.86 58 0 58 C0 38.86 0 19.72 0 0 Z " fill="#26292F" transform="translate(0,0)"/>
</svg>
