<svg width="393" height="58" viewBox="0 0 393 58" fill="none" xmlns="http://www.w3.org/2000/svg">
<mask id="path-1-inside-1_88_3488" fill="white">
<path fill-rule="evenodd" clip-rule="evenodd" d="M393 0H0V58H393V0ZM269 0.176507C269 0.117654 269 0.0588301 269.001 3.43323e-05H387.999C388 0.0588301 388 0.117654 388 0.176507C374.74 0.176507 370.619 10.2736 366.052 21.4668C360.371 35.3859 354 51 328.5 51C302.153 51 296.123 35.3439 290.756 21.4106C286.454 10.2399 282.578 0.176507 269 0.176507Z"/>
</mask>
<path fill-rule="evenodd" clip-rule="evenodd" d="M393 0H0V58H393V0ZM269 0.176507C269 0.117654 269 0.0588301 269.001 3.43323e-05H387.999C388 0.0588301 388 0.117654 388 0.176507C374.74 0.176507 370.619 10.2736 366.052 21.4668C360.371 35.3859 354 51 328.5 51C302.153 51 296.123 35.3439 290.756 21.4106C286.454 10.2399 282.578 0.176507 269 0.176507Z" fill="#272A2F"/>
<path d="M0 0V-3H-3V0H0ZM393 0H396V-3H393V0ZM0 58H-3V61H0V58ZM393 58V61H396V58H393ZM269.001 3.43323e-05V-2.99997H266.021L266.001 -0.0202079L269.001 3.43323e-05ZM269 0.176507H266V3.17651H269V0.176507ZM387.999 3.43323e-05L390.999 -0.0202079L390.979 -2.99997H387.999V3.43323e-05ZM388 0.176507V3.17651H391V0.176507H388ZM366.052 21.4668L363.274 20.3333V20.3333L366.052 21.4668ZM290.756 21.4106L287.957 22.4889V22.4889L290.756 21.4106ZM0 3H393V-3H0V3ZM3 58V0H-3V58H3ZM393 55H0V61H393V55ZM390 0V58H396V0H390ZM266.001 -0.0202079C266 0.044813 266 0.110404 266 0.176507H272C272 0.124905 272 0.0728471 272.001 0.0202766L266.001 -0.0202079ZM387.999 -2.99997H269.001V3.00003H387.999V-2.99997ZM391 0.176507C391 0.110404 391 0.044813 390.999 -0.0202079L384.999 0.0202766C385 0.0728471 385 0.124905 385 0.176507H391ZM368.829 22.6003C371.162 16.8846 373.169 12.0383 376.074 8.54098C378.794 5.26586 382.31 3.17651 388 3.17651V-2.82349C380.43 -2.82349 375.255 0.135711 371.458 4.70744C367.846 9.057 365.509 14.8558 363.274 20.3333L368.829 22.6003ZM328.5 54C341.95 54 350.731 49.8434 356.858 43.5451C362.823 37.4139 366.029 29.4631 368.829 22.6003L363.274 20.3333C360.394 27.3896 357.574 34.2054 352.558 39.3611C347.704 44.3496 340.55 48 328.5 48V54ZM287.957 22.4889C290.601 29.3551 293.638 37.3499 299.604 43.5163C305.733 49.8513 314.656 54 328.5 54V48C315.997 48 308.731 44.3208 303.916 39.3443C298.939 34.1994 296.278 27.3994 293.556 20.3323L287.957 22.4889ZM269 3.17651C274.874 3.17651 278.391 5.27716 281.035 8.50536C283.873 11.9707 285.757 16.7784 287.957 22.4889L293.556 20.3323C291.453 14.8721 289.247 9.06275 285.677 4.7037C281.913 0.107534 276.703 -2.82349 269 -2.82349V3.17651Z" fill="url(#paint0_linear_88_3488)" mask="url(#path-1-inside-1_88_3488)"/>
<defs>
<linearGradient id="paint0_linear_88_3488" x1="210.5" y1="35.5" x2="209.5" y2="-1.24737e-06" gradientUnits="userSpaceOnUse">
<stop stop-opacity="0"/>
<stop offset="1" stop-color="#F68148"/>
</linearGradient>
</defs>
</svg>
