<svg width="20" height="20" viewBox="0 0 20 20" fill="none" xmlns="http://www.w3.org/2000/svg">
<g clip-path="url(#clip0_234_4870)">
<path d="M9.16667 3.33333H8.33333C8.33333 3.79333 7.96 4.16667 7.5 4.16667H6.79083L7.49917 13.6783C7.54 14.8567 6.59583 15.8333 5.4175 15.8333C4.23917 15.8333 3.295 14.8558 3.33583 13.6783L4.04417 4.16667H0.833333C0 4.16667 0 3.33333 0 3.33333C0 1.4925 1.4925 0 3.33333 0H7.5C7.96 0 8.33333 0.373333 8.33333 0.833333H9.16667C9.16667 0.373333 9.54 0 10 0C10.46 0 10.8333 0.373333 10.8333 0.833333V3.33333C10.8333 3.79333 10.46 4.16667 10 4.16667C9.54 4.16667 9.16667 3.79333 9.16667 3.33333ZM12.7983 10.435L10.9875 11.3117C10.1558 11.735 9.55917 12.4692 9.305 13.3333H19.8617C19.6067 12.47 19.0108 11.7358 18.18 11.3125L16.3683 10.435C16.0367 10.2742 15.8492 9.91583 15.9092 9.55167C16.2683 7.35667 16.6667 4.84333 16.6667 4.58333C16.6667 3.43417 15.7325 2.5 14.5833 2.5C13.4342 2.5 12.5 3.43417 12.5 4.58333C12.5 4.84333 12.8983 7.35667 13.2575 9.55167C13.3175 9.91583 13.13 10.2742 12.7983 10.435ZM9.16667 15V17.5C9.16667 18.8783 10.2883 20 11.6667 20L12.4533 16.9883C12.6142 16.56 13.22 16.56 13.3808 16.9883L14.1675 20H17.5008C18.8792 20 20.0008 18.8783 20.0008 17.5V15H9.1675H9.16667Z" fill="white"/>
</g>
<defs>
<clipPath id="clip0_234_4870">
<rect width="20" height="20" fill="white"/>
</clipPath>
</defs>
</svg>
