<svg width="20" height="20" viewBox="0 0 20 20" fill="none" xmlns="http://www.w3.org/2000/svg">
<path d="M10.0002 10C12.3013 10 14.1668 8.13452 14.1668 5.83333C14.1668 3.53215 12.3013 1.66667 10.0002 1.66667C7.69898 1.66667 5.8335 3.53215 5.8335 5.83333C5.8335 8.13452 7.69898 10 10.0002 10Z" fill="#8D9195"/>
<path opacity="0.4" d="M9.99983 12.0833C5.82483 12.0833 2.4248 14.8833 2.4248 18.3333C2.4248 18.5667 2.60814 18.75 2.84147 18.75H17.1582C17.3915 18.75 17.5748 18.5667 17.5748 18.3333C17.5748 14.8833 14.1748 12.0833 9.99983 12.0833Z" fill="#8D9195"/>
<path d="M17.8585 12.2834C17.1085 11.5334 16.5169 11.775 16.0085 12.2834L13.0585 15.2334C12.9418 15.35 12.8335 15.5667 12.8085 15.725L12.6502 16.85C12.5919 17.2583 12.8752 17.5417 13.2835 17.4833L14.4085 17.325C14.5668 17.3 14.7919 17.1917 14.9002 17.075L17.8502 14.125C18.3668 13.625 18.6085 13.0334 17.8585 12.2834Z" fill="#8D9195"/>
</svg>
