<svg width="24" height="24" viewBox="0 0 24 24" fill="none" xmlns="http://www.w3.org/2000/svg">
<g clip-path="url(#clip0_271_3921)">
<path d="M16.5 0H7.5C4.467 0 2 2.467 2 5.5V18.5C2 21.533 4.467 24 7.5 24H16.5C19.533 24 22 21.533 22 18.5V5.5C22 2.467 19.533 0 16.5 0ZM19 18.5C19 19.878 17.878 21 16.5 21H7.5C6.122 21 5 19.878 5 18.5V5.5C5 4.122 6.122 3 7.5 3H16.5C17.878 3 19 4.122 19 5.5V18.5ZM17 6.5C17 7.329 16.329 8 15.5 8H13.5C11.528 7.967 11.529 5.033 13.5 5H15.5C16.329 5 17 5.671 17 6.5ZM17 11.5C17 12.329 16.329 13 15.5 13H13.5C11.528 12.967 11.529 10.033 13.5 10H15.5C16.329 10 17 10.671 17 11.5ZM17 16.5C17 17.329 16.329 18 15.5 18H13.5C11.528 17.967 11.529 15.033 13.5 15H15.5C16.329 15 17 15.671 17 16.5ZM10 6.5C9.966 8.472 7.033 8.471 7 6.5C7.034 4.528 9.967 4.529 10 6.5ZM10 11.5C9.966 13.472 7.033 13.471 7 11.5C7.034 9.528 9.967 9.529 10 11.5ZM10 16.5C9.966 18.472 7.033 18.471 7 16.5C7.034 14.528 9.967 14.529 10 16.5Z" fill="white"/>
</g>
<defs>
<clipPath id="clip0_271_3921">
<rect width="24" height="24" fill="white"/>
</clipPath>
</defs>
</svg>
