<svg width="24" height="24" viewBox="0 0 24 24" fill="none" xmlns="http://www.w3.org/2000/svg">
<g clip-path="url(#clip0_271_3932)">
<path d="M9 16H10.59C11.66 16 12.66 15.58 13.42 14.83L23.12 5.12C23.69 4.55 24 3.8 24 3C24 2.2 23.69 1.45 23.12 0.880002C21.95 -0.289998 20.05 -0.289998 18.88 0.880002L9.17 10.59C8.41 11.35 8 12.35 8 13.42V15.01C8 15.56 8.45 16.01 9 16.01V16ZM21.71 2.29C21.9 2.48 22 2.73 22 3C22 3.27 21.9 3.52 21.71 3.71L20.42 5L19.01 3.59L20.3 2.3C20.69 1.91 21.32 1.91 21.71 2.3V2.29ZM10 13.41C10 12.88 10.21 12.37 10.59 12L17.59 5L19 6.41L12 13.41C11.62 13.79 11.12 14 10.59 14H10V13.41ZM24 23C24 23.55 23.55 24 23 24C21.46 24 20.71 22.88 20.17 22.05C19.67 21.3 19.42 21 19 21C18.49 21 18.1 21.44 17.49 22.15C16.79 22.98 15.92 24 14.46 24C13 24 12.14 22.97 11.46 22.13C10.88 21.43 10.5 21 10 21C9.61 21 9.37 21.25 8.84 21.91C8.12 22.79 7.13 24 5 24C2.24 24 0 21.76 0 19C0 16.24 2.24 14 5 14C5.55 14 6 14.45 6 15C6 15.55 5.55 16 5 16C3.35 16 2 17.35 2 19C2 20.65 3.35 22 5 22C6.18 22 6.67 21.4 7.29 20.64C7.89 19.91 8.63 19 10 19C11.47 19 12.32 20.03 13 20.87C13.58 21.57 13.96 22 14.46 22C14.96 22 15.36 21.56 15.97 20.85C16.67 20.02 17.54 19 19 19C20.46 19 21.29 20.12 21.83 20.95C22.33 21.7 22.58 22 23 22C23.55 22 24 22.45 24 23Z" fill="white"/>
</g>
<defs>
<clipPath id="clip0_271_3932">
<rect width="24" height="24" fill="white"/>
</clipPath>
</defs>
</svg>
